<svg xmlns="http://www.w3.org/2000/svg" viewBox="0 0 500 500"><g id="freepik--background-complete--inject-1"><rect x="416.78" y="398.49" width="33.12" height="0.25" style="fill:#ebebeb"></rect><rect x="322.53" y="401.21" width="8.69" height="0.25" style="fill:#ebebeb"></rect><rect x="396.59" y="389.21" width="19.19" height="0.25" style="fill:#ebebeb"></rect><rect x="52.46" y="390.89" width="43.19" height="0.25" style="fill:#ebebeb"></rect><rect x="104.56" y="390.89" width="6.33" height="0.25" style="fill:#ebebeb"></rect><rect x="131.47" y="395.11" width="93.68" height="0.25" style="fill:#ebebeb"></rect><path d="M238.4,337.8H45.3a5.71,5.71,0,0,1-5.71-5.71V60.66A5.71,5.71,0,0,1,45.3,55H238.4a5.71,5.71,0,0,1,5.71,5.71V332.09A5.71,5.71,0,0,1,238.4,337.8ZM45.3,55.2a5.47,5.47,0,0,0-5.46,5.46V332.09a5.47,5.47,0,0,0,5.46,5.46H238.4a5.47,5.47,0,0,0,5.46-5.46V60.66a5.47,5.47,0,0,0-5.46-5.46Z" style="fill:#ebebeb"></path><path d="M454.7,337.8H261.6a5.71,5.71,0,0,1-5.71-5.71V60.66A5.71,5.71,0,0,1,261.6,55H454.7a5.71,5.71,0,0,1,5.71,5.71V332.09A5.71,5.71,0,0,1,454.7,337.8ZM261.6,55.2a5.47,5.47,0,0,0-5.46,5.46V332.09a5.47,5.47,0,0,0,5.46,5.46H454.7a5.47,5.47,0,0,0,5.46-5.46V60.66a5.47,5.47,0,0,0-5.46-5.46Z" style="fill:#ebebeb"></path><rect y="382.4" width="500" height="0.25" style="fill:#ebebeb"></rect><rect x="53.38" y="181.59" width="109.89" height="200.66" style="fill:#ebebeb"></rect><rect x="69.49" y="157.06" width="77.67" height="13.31" style="fill:#f0f0f0"></rect><rect x="59.03" y="186.46" width="98.59" height="195.79" style="fill:#fafafa"></rect><rect x="59.03" y="275.02" width="98.59" height="24.92" style="fill:#f0f0f0"></rect><rect x="59.03" y="357.61" width="98.59" height="24.92" style="fill:#f0f0f0"></rect><path d="M151,296.8V277.17a1.88,1.88,0,0,0-1.88-1.89h0a1.89,1.89,0,0,0-1.89,1.89V296.8a1.9,1.9,0,0,0,1.89,1.9h0A1.9,1.9,0,0,0,151,296.8Z" style="fill:#fff"></path><rect x="66.73" y="189.55" width="17.15" height="82.44" style="fill:#e0e0e0"></rect><rect x="68.45" y="191.38" width="13.85" height="78.75" style="fill:#ebebeb"></rect><polygon points="82.29 202.51 68.45 207.95 68.45 221.29 82.29 215.85 82.29 202.51" style="fill:#f5f5f5"></polygon><polygon points="82.29 218.57 68.45 224.01 68.45 229.12 82.29 223.68 82.29 218.57" style="fill:#f5f5f5"></polygon><polygon points="82.29 246.33 68.45 251.77 68.45 256.88 82.29 251.44 82.29 246.33" style="fill:#f5f5f5"></polygon><path d="M387.42,108a8.31,8.31,0,0,1-8.31,8.31H318a8.32,8.32,0,0,1,0-16.63h61.11A8.32,8.32,0,0,1,387.42,108Z" style="fill:#f5f5f5"></path><path d="M362.75,100.9v14.32H318.54a7.16,7.16,0,0,1,0-14.32Z" style="fill:#e6e6e6"></path><path d="M314.37,144.21a11.66,11.66,0,0,1-10.95,11.64c-.23,0-31.28,0-31.58,0a11.67,11.67,0,0,1-.15-23.25,16.69,16.69,0,0,1,33.33.19A11.65,11.65,0,0,1,314.37,144.21Z" style="fill:#f5f5f5"></path><polygon points="298.52 173.22 288.1 183.65 277.66 173.22 281.77 173.22 281.77 155.99 295.02 155.99 295.02 173.22 298.52 173.22" style="fill:#e6e6e6"></polygon><path d="M421.87,273.71a14.52,14.52,0,0,0-.63-4.25l3.73-3.28-2.35-4.07-4.71,1.59a14.59,14.59,0,0,0-7.36-4.25l-1-4.87h-4.7l-1,4.87a14.67,14.67,0,0,0-7.37,4.25l-4.7-1.59-2.35,4.07,3.73,3.28a14.65,14.65,0,0,0,0,8.5l-3.73,3.28,2.35,4.07,4.7-1.6a14.68,14.68,0,0,0,7.37,4.26l1,4.87h4.7l1-4.87a14.61,14.61,0,0,0,7.36-4.26l4.71,1.6,2.35-4.07L421.24,278A14.52,14.52,0,0,0,421.87,273.71Zm-14.64,7.9a7.61,7.61,0,1,1,7.61-7.61A7.61,7.61,0,0,1,407.23,281.61Z" style="fill:#e0e0e0"></path><path d="M442.63,286.84a10.73,10.73,0,0,0-1.59-2.71l1.64-3.24-2.7-2.12-2.76,2.36a10.66,10.66,0,0,0-6.15-.88l-2-3-3.18,1.28.66,3.57a10.75,10.75,0,0,0-3.84,4.89l-3.62.2-.49,3.4,3.42,1.21a10.86,10.86,0,0,0,2.32,5.76l-1.64,3.24,2.7,2.12,2.76-2.36a10.77,10.77,0,0,0,6.15.89l2,3,3.19-1.27-.67-3.57a10.73,10.73,0,0,0,3.84-4.89l3.62-.21.49-3.39-3.42-1.21A10.83,10.83,0,0,0,442.63,286.84Zm-7.78,9.35a5.57,5.57,0,1,1,3.09-7.24A5.56,5.56,0,0,1,434.85,296.19Z" style="fill:#ebebeb"></path><rect x="392.84" y="160.13" width="50.28" height="58.28" transform="translate(226.52 606.25) rotate(-89.7)" style="fill:#e0e0e0"></rect><rect x="388.99" y="154.72" width="58.28" height="9.41" transform="translate(835.43 321.04) rotate(-179.7)" style="fill:#e6e6e6"></rect><polygon points="387 212.84 445.29 213.15 447.25 164.28 388.97 163.98 387 212.84" style="fill:#f5f5f5"></polygon><polygon points="401.93 176.05 430.78 176.2 431.13 167.6 402.27 167.45 401.93 176.05" style="fill:#ebebeb"></polygon><polygon points="435.19 187.34 442.9 187.38 443.21 179.67 435.5 179.63 435.19 187.34" style="fill:#e0e0e0"></polygon><polygon points="424.26 187.28 431.96 187.32 432.27 179.62 424.57 179.57 424.26 187.28" style="fill:#e0e0e0"></polygon><polygon points="434.77 197.73 442.48 197.77 442.79 190.06 435.08 190.02 434.77 197.73" style="fill:#e0e0e0"></polygon><polygon points="434.36 208.12 442.06 208.16 442.37 200.46 434.67 200.42 434.36 208.12" style="fill:#ebebeb"></polygon><polygon points="423.84 197.67 431.55 197.71 431.86 190.01 424.15 189.97 423.84 197.67" style="fill:#e0e0e0"></polygon><polygon points="412.91 197.61 420.62 197.65 420.93 189.95 413.22 189.91 412.91 197.61" style="fill:#e0e0e0"></polygon><polygon points="401.98 197.56 409.69 197.6 409.99 189.89 402.29 189.85 401.98 197.56" style="fill:#e0e0e0"></polygon><polygon points="391.05 197.5 398.75 197.54 399.06 189.84 391.36 189.79 391.05 197.5" style="fill:#e0e0e0"></polygon><polygon points="423.42 208.06 431.13 208.1 431.44 200.4 423.73 200.36 423.42 208.06" style="fill:#ebebeb"></polygon><polygon points="412.49 208.01 420.2 208.05 420.51 200.34 412.8 200.3 412.49 208.01" style="fill:#ebebeb"></polygon><polygon points="401.56 207.95 409.27 207.99 409.58 200.28 401.87 200.24 401.56 207.95" style="fill:#e0e0e0"></polygon><polygon points="413.33 187.22 421.03 187.26 421.34 179.56 413.64 179.52 413.33 187.22" style="fill:none"></polygon><polygon points="413.33 187.22 421.03 187.26 421.34 179.56 413.64 179.52 413.33 187.22" style="fill:#ebebeb"></polygon><polygon points="402.4 187.16 410.1 187.21 410.41 179.5 402.71 179.46 402.4 187.16" style="fill:none"></polygon><polygon points="402.4 187.16 410.1 187.21 410.41 179.5 402.71 179.46 402.4 187.16" style="fill:#ebebeb"></polygon><polygon points="391.46 187.11 399.17 187.15 399.48 179.44 391.77 179.4 391.46 187.11" style="fill:none"></polygon><polygon points="391.46 187.11 399.17 187.15 399.48 179.44 391.77 179.4 391.46 187.11" style="fill:#ebebeb"></polygon><polygon points="390.63 207.89 398.34 207.93 398.64 200.23 390.94 200.19 390.63 207.89" style="fill:#e0e0e0"></polygon><path d="M418,152.16a3.37,3.37,0,1,0,3.36,3.36A3.36,3.36,0,0,0,418,152.16Zm0,5.92a2.56,2.56,0,1,1,2.55-2.56A2.56,2.56,0,0,1,418,158.08Z" style="fill:#e6e6e6"></path></g><g id="freepik--Shadow--inject-1"><ellipse id="freepik--path--inject-1" cx="250" cy="415.69" rx="193.89" ry="11.32" style="fill:#f5f5f5"></ellipse></g><g id="freepik--Character--inject-1"><path d="M326.69,229.72l-10.62.54L312,226.79a2.7,2.7,0,0,0-1.67-.63l-3.77-.1a2.67,2.67,0,0,0-2.16,1l-1.07,1.36a2.64,2.64,0,0,0-.57,1.64v1.77a2.66,2.66,0,0,0,1.59,2.46l5.95,2.61a2.71,2.71,0,0,0,1.49.19l4.56-.72,12.63.69Z" style="fill:#b25b52"></path><path d="M322.92,236.25a2.56,2.56,0,0,0,2.14,2.49c3.26.56,9.57,1,15.11-2.23,7.9-4.61,6.17-31.12,4.54-38.09a77.28,77.28,0,0,1-2-13.37c-4.74.92-10.46,5.56-10.72,14.59s1.94,23.51,1.5,25.89c-.28,1.53-5.34,2-8.92,2.14a2.57,2.57,0,0,0-2.39,3.23A21.74,21.74,0,0,1,322.92,236.25Z" style="fill:#263238"></path><path d="M322.92,236.25a2.56,2.56,0,0,0,2.14,2.49c3.26.56,9.57,1,15.11-2.23,7.9-4.61,6.17-31.12,4.54-38.09a77.28,77.28,0,0,1-2-13.37c-3.91.48-10.46,5.56-10.72,14.59s1.94,23.51,1.5,25.89c-.28,1.53-5.34,2-8.92,2.14a2.57,2.57,0,0,0-2.39,3.23A21.74,21.74,0,0,1,322.92,236.25Z" style="fill:#fff;opacity:0.5"></path><polygon points="347.84 411.35 340.25 411.35 339.93 393.8 347.52 393.8 347.84 411.35" style="fill:#b25b52"></polygon><path d="M340.33,410.48h8.29a.62.62,0,0,1,.63.51l1.34,6.72a1.16,1.16,0,0,1-.92,1.34.74.74,0,0,1-.21,0c-3-.05-7.3-.23-11.06-.23-4.38,0-4.74.24-9.89.24-3.11,0-3.89-3.14-2.59-3.42,6-1.3,7.38-1.44,12.57-4.61A3.55,3.55,0,0,1,340.33,410.48Z" style="fill:#263238"></path><polygon points="339.93 393.81 340.1 402.86 347.68 402.86 347.52 393.81 339.93 393.81" style="opacity:0.2"></polygon><path d="M337,410.5a2.77,2.77,0,0,1-1.81-.47.93.93,0,0,1-.31-.86.55.55,0,0,1,.3-.46c.91-.52,3.88,1,4.22,1.19a.17.17,0,0,1,.08.23.15.15,0,0,1-.13.09A12.37,12.37,0,0,1,337,410.5Zm-1.29-1.56a.78.78,0,0,0-.33.07.21.21,0,0,0-.11.19.61.61,0,0,0,.2.57c.44.41,1.67.48,3.33.2A9.63,9.63,0,0,0,335.68,408.94Z" style="fill:#37474F"></path><path d="M339.32,410.23h-.08c-.9-.41-2.63-2-2.48-2.87,0-.19.19-.44.68-.49a1.27,1.27,0,0,1,1,.3c.91.78,1.08,2.8,1.09,2.88a.15.15,0,0,1-.18.18Zm-1.77-3h-.11c-.32,0-.35.15-.36.2-.09.5,1.09,1.77,2,2.32a4.1,4.1,0,0,0-.91-2.31A.93.93,0,0,0,337.55,407.24Z" style="fill:#37474F"></path><polygon points="403.29 406.38 396.05 408.64 390.51 391.98 397.75 389.72 403.29 406.38" style="fill:#b25b52"></polygon><path d="M395.86,407.78l7.91-2.47a.65.65,0,0,1,.76.31l3.27,6a1.14,1.14,0,0,1-.47,1.55l-.2.08c-2.86.84-7,2-10.62,3.08-4.19,1.3-4.46,1.64-9.37,3.17-3,.93-4.65-1.83-3.49-2.5,5.3-3,6.61-3.57,10.62-8.14A3.67,3.67,0,0,1,395.86,407.78Z" style="fill:#263238"></path><polygon points="390.51 391.99 393.73 401.67 400.97 399.4 397.75 389.73 390.51 391.99" style="opacity:0.2"></polygon><path d="M392.66,408.8a2.73,2.73,0,0,1-1.87.1,1,1,0,0,1-.55-.73.55.55,0,0,1,.15-.53c.71-.76,4-.2,4.38-.12a.18.18,0,0,1,.15.19.21.21,0,0,1-.1.14A13,13,0,0,1,392.66,408.8ZM391,407.71a.67.67,0,0,0-.3.16.19.19,0,0,0-.05.21.62.62,0,0,0,.36.49c.55.26,1.74,0,3.24-.8A9.34,9.34,0,0,0,391,407.71Z" style="fill:#37474F"></path><path d="M394.82,407.85l-.07,0c-1-.12-3.11-1.14-3.22-2-.06-.19,0-.48.49-.67a1.25,1.25,0,0,1,1,0c1.1.48,1.86,2.35,1.9,2.43a.2.2,0,0,1,0,.17A.24.24,0,0,1,394.82,407.85Zm-2.58-2.33-.11,0c-.3.1-.28.25-.28.3.07.5,1.57,1.37,2.6,1.62a4.08,4.08,0,0,0-1.55-1.93A.94.94,0,0,0,392.24,405.52Z" style="fill:#37474F"></path><path d="M335.06,253.14l1.71,89,.46,54.27a2.72,2.72,0,0,0,2.54,2.81h9a2.67,2.67,0,0,0,2.53-2.59c1.08-12.18,5.39-31.49,3.46-54.24,0,0,6.48-59.72,6.87-77.95l-1.46-16.22Z" style="fill:#263238"></path><path d="M335.06,253.14l1.71,89,.46,54.27a2.72,2.72,0,0,0,2.54,2.81h9a2.67,2.67,0,0,0,2.53-2.59c1.08-12.18,5.39-31.49,3.46-54.24,0,0,6.48-59.72,6.87-77.95l-1.46-16.22Z" style="fill:#fff;opacity:0.1"></path><path d="M356,270.31a346.54,346.54,0,0,0,1.54,45.95s2.18-24.49,3.39-34.3Z" style="opacity:0.1"></path><path d="M350.76,253.77l19.09,90.74,18.37,52.87a2.39,2.39,0,0,0,3.13,1.59l9.41-3.46a2.88,2.88,0,0,0,1.57-3.35c-2.66-11.6-5-30.85-13.77-50.73,0,0-5.26-57.56-12.34-88.34Z" style="fill:#263238"></path><path d="M350.76,253.77l19.09,90.74,18.37,52.87a2.39,2.39,0,0,0,3.13,1.59l9.41-3.46a2.88,2.88,0,0,0,1.57-3.35c-2.66-11.6-5-30.85-13.77-50.73,0,0-5.26-57.56-12.34-88.34Z" style="fill:#fff;opacity:0.1"></path><path d="M362.36,181.61c-1.55-4.79-1.22-11.65-.71-16l-10.37,10.26a12.46,12.46,0,0,1,.65,5.7,2.07,2.07,0,0,1-1.79,1.75l-4.42,1.38-.52,3.42,2.67.69,3.58,3.66,8.64-3.66,9.25-4.31a16.85,16.85,0,0,0-4.31-.8A3.74,3.74,0,0,1,362.36,181.61Z" style="fill:#b25b52"></path><path d="M357.43,170.63l-6,5.86a14.19,14.19,0,0,1,.58,3.33c2.43-.56,5.42-2.85,6.19-5.62C358.72,172.5,358.08,170.78,357.43,170.63Z" style="opacity:0.2;isolation:isolate"></path><path d="M363.22,157.9c-.44,7.88-.31,12.51-4.28,16.57-5.95,6.11-15.7,2.52-17.6-5.32-1.73-7.11-.69-18.77,7-21.93a10.75,10.75,0,0,1,14.87,10.68Z" style="fill:#b25b52"></path><path d="M350.7,160c-.06.64-.44,1.13-.86,1.09s-.71-.59-.65-1.23.45-1.12.87-1.08S350.76,159.34,350.7,160Z" style="fill:#263238"></path><path d="M343.49,159.44c-.07.64-.45,1.13-.87,1.08s-.7-.58-.64-1.22.44-1.13.86-1.09S343.55,158.8,343.49,159.44Z" style="fill:#263238"></path><path d="M353.52,157a.71.71,0,0,0,.18-.08.4.4,0,0,0,0-.54,3.79,3.79,0,0,0-3.32-.89.38.38,0,0,0-.26.47.37.37,0,0,0,.47.26h0a2.94,2.94,0,0,1,2.61.74A.39.39,0,0,0,353.52,157Z" style="fill:#263238"></path><path d="M340.75,156.48a.36.36,0,0,0,.36,0,3,3,0,0,1,2.7-.22.37.37,0,0,0,.5-.17.38.38,0,0,0-.16-.51,3.74,3.74,0,0,0-3.44.25.35.35,0,0,0-.14.49h0A.35.35,0,0,0,340.75,156.48Z" style="fill:#263238"></path><path d="M363.11,161.35a6.11,6.11,0,0,0-4.33-1.79h-3.62a3.89,3.89,0,0,0-7.75-.18,1.16,1.16,0,0,0-.86,0,3.85,3.85,0,1,0,0,.57.63.63,0,0,1,.8,0,3.89,3.89,0,0,0,7.78.11h3.62a5.58,5.58,0,0,1,4,1.65l1.17,1.17.35-.36Zm-20.42,1.87a3.41,3.41,0,1,1,3.41-3.41A3.41,3.41,0,0,1,342.69,163.22Zm8.58,0a3.41,3.41,0,1,1,3.41-3.41A3.41,3.41,0,0,1,351.27,163.22Z" style="fill:#263238"></path><path d="M360.54,156a9.06,9.06,0,0,0,0,6.1,2.78,2.78,0,0,1,1.17-.3,1.45,1.45,0,0,1,1.32.54,2.12,2.12,0,0,1,.06,1.68q-.92,3.75-2,7.44A24.11,24.11,0,0,0,368,156.57C365.63,156.36,362.88,156.23,360.54,156Z" style="fill:#263238"></path><path d="M367.1,165.23a7.58,7.58,0,0,1-4.66,3.33c-2.57.56-3.72-1.76-2.89-4.11.75-2.11,3-5,5.5-4.49S368.37,163.14,367.1,165.23Z" style="fill:#b25b52"></path><path d="M346.58,159.83a21.89,21.89,0,0,1-3.77,4.83,3.73,3.73,0,0,0,2.91,1.13Z" style="fill:#9d2724"></path><path d="M370.08,184.11s-.31-.11-.94-.27l-1.34-.14-2-.47,0,0c-.66.47-10.24,7.06-13.34,8.38l-.95.17a16.81,16.81,0,0,1-2.76-8.57l-1.1.08a2.68,2.68,0,0,1-1.26.66l-.93.14-2.85,2.12s-6,13.14-7.49,45.79l-.48,24.69H381Z" style="fill:#37474F"></path><g style="opacity:0.4;isolation:isolate"><path d="M350.06,189.24a.27.27,0,0,0,.05.11l-.05-.1Z"></path></g><path d="M350.06,189.24a.27.27,0,0,0,.05.11l-.05-.1Z" style="fill:#37474F"></path><path d="M348.69,183.23s-6.57,2.78-9,20.53-3.38,51.05-2.63,66.6c.3,6.4,1.34,12.76-3.48,12.11,0,0-.25-12.11.19-39.93S331.38,183.75,348.69,183.23Z" style="fill:#263238"></path><g style="opacity:0.6000000000000001"><path d="M348.69,183.23s-6.57,2.78-9,20.53-2.35,34.74-2.9,53.35c-.46,15.57,2.78,26.14-3.21,25.36,0,0-.25-12.11.19-39.93S331.38,183.75,348.69,183.23Z" style="fill:#fff"></path></g><path d="M368.41,183.23s-7.89,4.39-8.77,32.14-2.19,67.75,7.16,68.63,19.57-4.38,19.57-4.38.95,2.52-.8-10.24c-1.46-10.65-3.93-23.17-4.89-33.27-1.11-11.68,5.26-43.82,1.17-47S368.41,183.23,368.41,183.23Z" style="fill:#263238"></path><path d="M368.41,183.23s-7.89,4.39-8.77,32.14-2.19,67.75,7.16,68.63,19.57-4.38,19.57-4.38.95,2.52-.8-10.24c-1.46-10.65-3.93-23.17-4.89-33.27-1.11-11.68,5.26-43.82,1.17-47S368.41,183.23,368.41,183.23Z" style="fill:#fff;opacity:0.6000000000000001"></path><g style="opacity:0.30000000000000004"><path d="M364.34,257.14h13.15a0,0,0,0,1,0,0v1.26a3.27,3.27,0,0,1-3.27,3.27h-6.6a3.27,3.27,0,0,1-3.27-3.27v-1.25A0,0,0,0,1,364.34,257.14Z" transform="translate(-33.15 55.44) rotate(-8.18)"></path></g><path d="M372.08,229.55,361.54,231l-4.34-3.12a2.66,2.66,0,0,0-1.71-.49l-3.76.22a2.67,2.67,0,0,0-2.07,1.19l-1,1.45a2.77,2.77,0,0,0-.43,1.68l.14,1.77a2.67,2.67,0,0,0,1.8,2.31l6.15,2.1a2.61,2.61,0,0,0,1.49.07l4.49-1.1,12.64-.38Z" style="fill:#b25b52"></path><path d="M368.87,236.38a2.58,2.58,0,0,0,2.35,2.3c3.3.28,9.62.2,14.87-3.49,7.47-5.27,3.52-31.54,1.31-38.34-2.47-7.62-8.15-9.74-8.15-9.74-7.06-4-7.33,3.2-6.82,12.22s6.29,23.07,6.05,25.48c-.15,1.54-5.15,2.44-8.71,2.88a2.57,2.57,0,0,0-2.11,3.42A21.39,21.39,0,0,1,368.87,236.38Z" style="fill:#263238"></path><path d="M372.43,199.33,375,226.77s7.83,2.43,6.69-5.26-9.35-24.46-9.35-24.46Z" style="opacity:0.2;isolation:isolate"></path><path d="M368.87,236.38a2.58,2.58,0,0,0,2.35,2.3c3.3.28,9.62.2,14.87-3.49,7.47-5.27,3.52-31.54,1.31-38.34-2.47-7.62-8.15-9.74-8.15-9.74-7.06-4-7.33,3.2-6.82,12.22s6.29,23.07,6.05,25.48c-.15,1.54-5.15,2.44-8.71,2.88a2.57,2.57,0,0,0-2.11,3.42A21.39,21.39,0,0,1,368.87,236.38Z" style="fill:#fff;opacity:0.6000000000000001"></path><path d="M348.48,169.23a5.35,5.35,0,0,0,3.41-2.47.18.18,0,0,0-.07-.25.19.19,0,0,0-.25.08,5.14,5.14,0,0,1-3.85,2.4.17.17,0,0,0-.17.19.18.18,0,0,0,.19.18h0A6,6,0,0,0,348.48,169.23Z" style="fill:#263238"></path><path d="M365.74,183.25l-14.6,13.8-.56-1a18.83,18.83,0,0,1-1.89-12.77,16.82,16.82,0,0,0,1.37,6l1.73-4.19a16,16,0,0,0,.57,3.32l1-1,2.86,2.18C360.19,187.08,365.27,183.58,365.74,183.25Z" style="fill:#37474F"></path><path d="M365.74,183.25l-14.6,13.8-.56-1a18.83,18.83,0,0,1-1.89-12.77,16.82,16.82,0,0,0,1.37,6l1.73-4.19a16,16,0,0,0,.57,3.32l1-1,2.86,2.18C360.19,187.08,365.27,183.58,365.74,183.25Z" style="fill:#fff;opacity:0.2;isolation:isolate"></path><path d="M352.36,188.36a34,34,0,0,0-6.09,4.33c.16-1.55.31-3.11.47-4.66a14.71,14.71,0,0,1,1-4.84,4.94,4.94,0,0,1,3.72-3c.14,0,.41-.29.55-.29A19.09,19.09,0,0,0,352.36,188.36Z" style="fill:#37474F"></path><path d="M352.36,188.36a34,34,0,0,0-6.09,4.33c.16-1.55.31-3.11.47-4.66a14.71,14.71,0,0,1,1-4.84,4.94,4.94,0,0,1,3.72-3c.14,0,.41-.29.55-.29A19.09,19.09,0,0,0,352.36,188.36Z" style="fill:#fff;opacity:0.6000000000000001"></path><path d="M352.36,188.36l5.43,5.37s8.12-9.25,8-11.82l-4.09-3.24Z" style="fill:#37474F"></path><path d="M352.36,188.36l5.43,5.37s8.12-9.25,8-11.82l-4.09-3.24Z" style="fill:#fff;opacity:0.6000000000000001"></path><path d="M360.75,156.84a1.3,1.3,0,0,1-1.31-.29,2.9,2.9,0,0,1-.58-1.45,29,29,0,0,1-.48-4.38,2.75,2.75,0,0,0-2.76-2.72,7.34,7.34,0,0,0-4.48,1.65c-.49-.35-2.94,0-3.5-.19,0,0,.66-1.52-.68-1.38-1.44.44-1.5.82-2.61,2.12-.28.34-1.06,1.75-1.37,2.05a1.17,1.17,0,0,0-.35.68,8.37,8.37,0,0,1,3.12-6.55c1.26-.87,1.53-2.94,2.94-3.56,3.72-1.63,8.15.44,12.16,1,13.21,1.91,8,14.64,6.85,14.38C365.41,158.64,360.75,156.84,360.75,156.84Z" style="fill:#263238"></path></g><g id="freepik--Table--inject-1"><path d="M296,410.66h-30.1a7.4,7.4,0,0,1-7.39-7.39V241.61H303.4V403.27A7.4,7.4,0,0,1,296,410.66Zm-33.49-165V403.27a3.39,3.39,0,0,0,3.39,3.39H296a3.39,3.39,0,0,0,3.39-3.39V245.61Z" style="fill:#37474F"></path><path d="M273.48,414.18a4.92,4.92,0,1,1-4.92-4.92A4.91,4.91,0,0,1,273.48,414.18Z" style="fill:#263238"></path><path d="M298.48,414.18a4.92,4.92,0,1,1-4.91-4.92A4.91,4.91,0,0,1,298.48,414.18Z" style="fill:#263238"></path><path d="M359.24,410.67h-30.1a7.4,7.4,0,0,1-7.39-7.39V241.61h44.88V403.28A7.39,7.39,0,0,1,359.24,410.67ZM325.75,245.61V403.28a3.39,3.39,0,0,0,3.39,3.39h30.1a3.39,3.39,0,0,0,3.39-3.39V245.61Z" style="fill:#37474F"></path><path d="M336.72,414.18a4.92,4.92,0,1,1-4.91-4.92A4.91,4.91,0,0,1,336.72,414.18Z" style="fill:#263238"></path><path d="M361.72,414.18a4.91,4.91,0,1,1-4.91-4.92A4.91,4.91,0,0,1,361.72,414.18Z" style="fill:#263238"></path><path d="M373.57,245.51a5.8,5.8,0,0,1-5.8,5.81H256.12a5.81,5.81,0,0,1-5.8-5.81,5.8,5.8,0,0,1,5.8-5.8H367.77A5.8,5.8,0,0,1,373.57,245.51Z" style="fill:#263238"></path><path d="M373.57,245.51a5.8,5.8,0,0,1-5.8,5.81H320.86a5.81,5.81,0,0,1-5.81-5.81,5.8,5.8,0,0,1,5.81-5.8h46.91A5.8,5.8,0,0,1,373.57,245.51Z" style="fill:#fff;opacity:0.2"></path></g><g id="freepik--device-2--inject-1"><path d="M327.34,240l-60.12-.41a1.33,1.33,0,0,1-1.31-1.33h0a1.33,1.33,0,0,1,1.33-1.32l60.11.42a1.31,1.31,0,0,1,1.31,1.33h0A1.31,1.31,0,0,1,327.34,240Z" style="fill:#37474F"></path><path d="M327.34,240l-60.12-.41a1.33,1.33,0,0,1-1.31-1.33h0a1.33,1.33,0,0,1,1.33-1.32l60.11.42a1.31,1.31,0,0,1,1.31,1.33h0A1.31,1.31,0,0,1,327.34,240Z" style="opacity:0.2"></path><path d="M323.52,237.33h-.8L268.05,237h-.16a4.19,4.19,0,0,1-.94-.15,5.29,5.29,0,0,1-3.82-4.09l-5.66-33.21a3.41,3.41,0,0,1,2.9-4.13,2.88,2.88,0,0,1,.59-.05l54.56.39h.84a5.24,5.24,0,0,1,4.93,4.23l5.65,33.21A3.43,3.43,0,0,1,323.52,237.33Z" style="fill:#37474F"></path><g style="opacity:0.6000000000000001"><path d="M325.49,233.2,319.83,200a5.25,5.25,0,0,0-3.82-4.07,4.24,4.24,0,0,0-1.1-.16l-54.54-.38a3.41,3.41,0,0,0-2.9,4.13l5.66,33.21A5.29,5.29,0,0,0,267,236.8a4.19,4.19,0,0,0,.94.15h.16l54.67.38A3.43,3.43,0,0,0,325.49,233.2Z" style="fill:#fff"></path></g><path d="M287.87,217.8a2.71,2.71,0,0,1,2.64,2.43,2.19,2.19,0,0,1-.18,1.12,2.49,2.49,0,0,0,.59-.81,3.13,3.13,0,0,0,.3-1.65,3.69,3.69,0,0,0-3.61-3.32,3,3,0,0,0-3,3.32,3.68,3.68,0,0,0,.59,1.65,3.81,3.81,0,0,0,1,1l-.06-.09a2.5,2.5,0,0,1-.44-1.21A2.19,2.19,0,0,1,287.87,217.8Z" style="fill:#fff"></path><path d="M324.79,238.5c0,.06,0,.12,0,.18a1.33,1.33,0,0,0,1.34,1.31l33.82-.42a1.32,1.32,0,0,0,1.3-1.16s0-.11,0-.17a1.33,1.33,0,0,0-.89-1.23h0a1.19,1.19,0,0,0-.42-.06l-33.83.4a1.29,1.29,0,0,0-1.14.71A1.14,1.14,0,0,0,324.79,238.5Z" style="fill:#37474F"></path><path d="M324.79,238.5c0,.06,0,.12,0,.18a1.33,1.33,0,0,0,1.34,1.31l33.82-.42a1.32,1.32,0,0,0,1.3-1.16s0-.11,0-.17a1.33,1.33,0,0,0-.89-1.23h0a1.19,1.19,0,0,0-.42-.06l-33.83.4a1.29,1.29,0,0,0-1.14.71A1.14,1.14,0,0,0,324.79,238.5Z" style="fill:#fff;opacity:0.6000000000000001"></path></g><g id="freepik--Cable--inject-1"><path d="M204.59,416.2a17.49,17.49,0,0,1-2.67-.18c-37.5-2.41-35.83-73.42-35.74-76.44l2.5.08c0,.71-1.71,71.69,33.46,73.87l.17,0c.53.1,13.22,2.39,20.9-11.7l.24-.43c6.31-11,10.56-37.78,13-58.33,3.86-32.34,4.94-82.21,5-82.71,1.43-15.39,8.88-22.56,23.47-22.65l13.12.09,0,2.5-13.11-.09c-13.37.08-19.65,6.15-21,20.29,0,.41-1.1,50.41-5,82.87-3.61,30.23-8.09,50.18-13.33,59.28l-.21.37C219.08,414.66,209.33,416.2,204.59,416.2Z" style="fill:#263238"></path><path d="M175.83,357.45a3,3,0,0,1-3,3.23h-10.2a3,3,0,0,1-3-2.81l-1.35-19.25h16.25Z" style="fill:#263238"></path></g><g id="freepik--device-1--inject-1"><path d="M94.66,73.75h7.79A13.06,13.06,0,0,0,89.25,88l16.53,236.47A15.47,15.47,0,0,0,121,338.62h-7.79A15.47,15.47,0,0,1,98,324.42L81.46,88A13.06,13.06,0,0,1,94.66,73.75Z" style="fill:#37474F"></path><path d="M94.66,73.75h7.79A13.06,13.06,0,0,0,89.25,88l16.53,236.47A15.47,15.47,0,0,0,121,338.62h-7.79c-7.84,0-15.74-6.36-16.29-14.2L80.36,88C79.81,80.11,86.82,73.75,94.66,73.75Z" style="fill:#263238"></path><path d="M115.5,338.62h95.39a13.06,13.06,0,0,0,13.2-14.2L207.56,88a15.47,15.47,0,0,0-15.2-14.2H97A13.06,13.06,0,0,0,83.78,88l16.53,236.47A15.47,15.47,0,0,0,115.5,338.62Z" style="fill:#37474F"></path><g style="opacity:0.6000000000000001"><path d="M192.11,78.31a10.77,10.77,0,0,1,10.56,9.88l16.54,236.47a8.61,8.61,0,0,1-8.74,9.4H115.09a10.77,10.77,0,0,1-10.57-9.88L88,87.71a8.59,8.59,0,0,1,8.74-9.4Z" style="fill:#fff"></path></g><polygon points="212.43 270.61 104.03 270.61 93.28 116.94 201.69 116.94 212.43 270.61" style="fill:#37474F"></polygon><polygon points="212.43 270.61 104.03 270.61 93.28 116.94 201.69 116.94 212.43 270.61" style="fill:#fff;opacity:0.8"></polygon><path d="M125.4,248.39a1.5,1.5,0,0,1,1.6-1.65,1.73,1.73,0,0,1,1.3.54l-.36.36a1.19,1.19,0,0,0-.88-.37,1,1,0,0,0-1.06,1.12,1.19,1.19,0,0,0,1.22,1.13,1,1,0,0,0,.83-.38l.41.37a1.53,1.53,0,0,1-1.24.53A1.76,1.76,0,0,1,125.4,248.39Z" style="fill:#263238"></path><path d="M131.69,246.79l.22,3.21h-.59l-.1-1.38h-1.66l.1,1.38h-.6l-.22-3.21h.6l.09,1.32h1.66l-.1-1.32Z" style="fill:#263238"></path><path d="M135.14,249.5l0,.5h-2.4l-.22-3.21h2.34l0,.5h-1.74l0,.83h1.55l0,.49h-1.55l.06.89Z" style="fill:#263238"></path><path d="M135.48,248.39a1.51,1.51,0,0,1,1.6-1.65,1.73,1.73,0,0,1,1.31.54l-.36.36a1.21,1.21,0,0,0-.88-.37,1,1,0,0,0-1.07,1.12,1.2,1.2,0,0,0,1.23,1.13,1,1,0,0,0,.82-.38l.41.37a1.51,1.51,0,0,1-1.23.53A1.78,1.78,0,0,1,135.48,248.39Z" style="fill:#263238"></path><path d="M140.16,248.65l-.47.53.06.82h-.6l-.22-3.21h.59l.12,1.64,1.46-1.64h.67l-1.24,1.43,1.55,1.78h-.7Z" style="fill:#263238"></path><path d="M142.26,246.79h.6l.22,3.21h-.59Z" style="fill:#263238"></path><path d="M146.57,246.79l.22,3.21h-.49l-1.92-2.17.16,2.17H144l-.23-3.21h.49l1.92,2.17-.15-2.17Z" style="fill:#263238"></path><path d="M149.73,248.36h.56l.09,1.27a1.87,1.87,0,0,1-1.23.41,1.78,1.78,0,0,1-1.84-1.65,1.52,1.52,0,0,1,1.62-1.65,1.73,1.73,0,0,1,1.32.53l-.35.36a1.25,1.25,0,0,0-.9-.36,1,1,0,0,0-1.09,1.12,1.21,1.21,0,0,0,1.24,1.13,1.33,1.33,0,0,0,.65-.16Z" style="fill:#263238"></path><path d="M152.85,247.29l.07,1h1.55l0,.51H153L153,250h-.59l-.23-3.21h2.34l0,.5Z" style="fill:#263238"></path><path d="M155,248.39a1.51,1.51,0,0,1,1.61-1.65,1.79,1.79,0,0,1,1.84,1.65,1.51,1.51,0,0,1-1.61,1.65A1.78,1.78,0,0,1,155,248.39Zm2.85,0a1.19,1.19,0,0,0-1.21-1.12,1,1,0,0,0-1,1.12,1.18,1.18,0,0,0,1.2,1.13A1,1,0,0,0,157.84,248.39Z" style="fill:#263238"></path><path d="M161.28,250l-.72-.94h-.85l.07.94h-.6l-.22-3.21h1.31c.85,0,1.4.43,1.45,1.14a1,1,0,0,1-.61,1l.81,1.06Zm-1-2.71h-.69l.09,1.28h.69c.52,0,.78-.24.75-.64S160.8,247.29,160.28,247.29Z" style="fill:#263238"></path><path d="M163.66,248.6l-.12-1.81h.59l.13,1.79c0,.66.36.94.88.94s.79-.28.74-.94l-.12-1.79h.58l.13,1.81a1.2,1.2,0,0,1-1.3,1.44A1.41,1.41,0,0,1,163.66,248.6Z" style="fill:#263238"></path><path d="M169.94,247.93c.05.71-.44,1.14-1.29,1.14h-.72l.06.93h-.59l-.22-3.21h1.31C169.34,246.79,169.89,247.22,169.94,247.93Zm-.6,0c0-.4-.32-.64-.84-.64h-.69l.09,1.28h.69C169.11,248.57,169.37,248.33,169.34,247.93Z" style="fill:#263238"></path><path d="M170.45,246.79h1.4a1.72,1.72,0,0,1,1.86,1.6,1.46,1.46,0,0,1-1.63,1.61h-1.4Zm1.56,2.7a1,1,0,0,0,1.1-1.1,1.16,1.16,0,0,0-1.25-1.1h-.78l.16,2.2Z" style="fill:#263238"></path><path d="M176.44,249.25h-1.6l-.27.75H174l1.22-3.21h.58l1.67,3.21h-.62Zm-.23-.46-.7-1.41-.51,1.41Z" style="fill:#263238"></path><path d="M178.14,247.29h-1.06l0-.5h2.72l0,.5h-1.07l.19,2.71h-.59Z" style="fill:#263238"></path><path d="M182.8,249.5l0,.5h-2.41l-.22-3.21h2.34l0,.5h-1.74l.06.83h1.54l0,.49h-1.55l.06.89Z" style="fill:#263238"></path><path d="M183.21,249.66l.17-.46a1.93,1.93,0,0,0,1.08.35c.5,0,.7-.18.68-.42,0-.69-1.92-.24-2-1.43,0-.52.34-1,1.22-1a2.06,2.06,0,0,1,1.09.29l-.16.46a1.86,1.86,0,0,0-.9-.25c-.49,0-.68.19-.66.43,0,.69,1.91.24,2,1.42,0,.51-.36.95-1.23.95A2.17,2.17,0,0,1,183.21,249.66Z" style="fill:#263238"></path><path d="M189.19,254.88H125a7.26,7.26,0,0,1-7.12-6.66,6.19,6.19,0,0,1,6.26-6.73h64.2a7.27,7.27,0,0,1,7.13,6.66h0a6.29,6.29,0,0,1-1.65,4.76A6.22,6.22,0,0,1,189.19,254.88Zm-65.06-12.39a5.19,5.19,0,0,0-5.26,5.66,6.24,6.24,0,0,0,6.12,5.73h64.2a5.2,5.2,0,0,0,5.27-5.66,6.25,6.25,0,0,0-6.13-5.73Z" style="fill:#37474F"></path><path d="M132.61,205.26a2.18,2.18,0,0,1,2.32-2.39,2.55,2.55,0,0,1,1.9.77l-.52.53a1.76,1.76,0,0,0-1.28-.55,1.46,1.46,0,0,0-1.55,1.64,1.72,1.72,0,0,0,1.77,1.64,1.51,1.51,0,0,0,1.21-.55l.6.53a2.23,2.23,0,0,1-1.8.78A2.58,2.58,0,0,1,132.61,205.26Z" style="fill:#263238"></path><path d="M141.75,202.93l.32,4.66h-.86l-.14-2h-2.41l.14,2h-.87l-.32-4.66h.86l.14,1.92H141l-.14-1.92Z" style="fill:#263238"></path><path d="M146.76,206.86l.05.73h-3.49l-.33-4.66h3.4l.05.73h-2.53l.08,1.21h2.25l0,.71H144l.09,1.28Z" style="fill:#263238"></path><path d="M147.26,205.26a2.18,2.18,0,0,1,2.33-2.39,2.53,2.53,0,0,1,1.89.77l-.52.53a1.73,1.73,0,0,0-1.28-.55,1.46,1.46,0,0,0-1.55,1.64,1.73,1.73,0,0,0,1.78,1.64,1.5,1.5,0,0,0,1.2-.55l.6.53a2.23,2.23,0,0,1-1.8.78A2.58,2.58,0,0,1,147.26,205.26Z" style="fill:#263238"></path><path d="M154.06,205.64l-.69.76.08,1.19h-.86l-.33-4.66h.87l.16,2.39,2.14-2.39h1L154.59,205l2.26,2.58h-1Z" style="fill:#263238"></path><path d="M157.11,202.93H158l.33,4.66h-.86Z" style="fill:#263238"></path><path d="M163.37,202.93l.32,4.66H163l-2.79-3.15.22,3.15h-.85l-.33-4.66h.71l2.79,3.16-.22-3.16Z" style="fill:#263238"></path><path d="M168,205.21h.81l.13,1.85a2.74,2.74,0,0,1-1.78.6,2.58,2.58,0,0,1-2.67-2.4,2.19,2.19,0,0,1,2.35-2.39,2.59,2.59,0,0,1,1.92.75l-.51.54a1.84,1.84,0,0,0-1.32-.54,1.47,1.47,0,0,0-1.57,1.64,1.74,1.74,0,0,0,1.8,1.64,1.83,1.83,0,0,0,.94-.24Z" style="fill:#263238"></path><path d="M169.75,207.08a.48.48,0,0,1,.5-.55.59.59,0,0,1,.59.55.51.51,0,0,1-.51.56A.59.59,0,0,1,169.75,207.08Z" style="fill:#263238"></path><path d="M171.37,207.08a.49.49,0,0,1,.51-.55.58.58,0,0,1,.58.55.51.51,0,0,1-.51.56A.59.59,0,0,1,171.37,207.08Z" style="fill:#263238"></path><path d="M173,207.08a.49.49,0,0,1,.51-.55.57.57,0,0,1,.58.55.51.51,0,0,1-.51.56A.6.6,0,0,1,173,207.08Z" style="fill:#263238"></path><path d="M191.15,193.77a5.7,5.7,0,0,1-5.76,6.2h-64.2a6.75,6.75,0,0,1-6.63-6.2,5.7,5.7,0,0,1,5.76-6.19h64.2A6.74,6.74,0,0,1,191.15,193.77Z" style="fill:#37474F"></path><path d="M166.08,188.3l.75,10.82H121.21a5.89,5.89,0,0,1-5.78-5.41,5,5,0,0,1,1.32-3.83,5,5,0,0,1,3.71-1.58Z" style="opacity:0.4"></path><path d="M184.38,168.9a14.58,14.58,0,0,0,.24-2.27l3.45-.9c0-.45,0-.89-.09-1.33l-3.6-.86a15.82,15.82,0,0,0-1.52-4.43l2.41-2.54c-.24-.39-.49-.77-.75-1.15l-3.42,1a16,16,0,0,0-3.49-3.22l.73-3.5c-.39-.24-.79-.45-1.2-.66l-2.32,2.63a15.37,15.37,0,0,0-2.23-.75,14.44,14.44,0,0,0-2.3-.41L169.14,147c-.44,0-.89,0-1.33,0l-.61,3.53a13.87,13.87,0,0,0-4.34,1.22l-2.72-2.59c-.38.21-.75.43-1.1.67l1.26,3.49a13.14,13.14,0,0,0-3,3.26l-3.57-1c-.2.37-.39.76-.57,1.15l2.8,2.51a13.69,13.69,0,0,0-.6,2.18,15.78,15.78,0,0,0-.25,2.26l-3.45.91c0,.44.05.89.1,1.33l3.59.86a15.46,15.46,0,0,0,1.53,4.42l-2.41,2.54c.23.39.48.78.75,1.15l3.41-1a16.51,16.51,0,0,0,3.49,3.23l-.73,3.5c.39.23.8.45,1.21.65l2.32-2.62a16.22,16.22,0,0,0,2.23.75,15.52,15.52,0,0,0,2.29.41l1.15,3.51c.45,0,.89,0,1.33,0l.62-3.54a13.86,13.86,0,0,0,4.34-1.21l2.72,2.59c.37-.21.74-.44,1.1-.68L179.44,177a13.15,13.15,0,0,0,3-3.27l3.57,1a12.46,12.46,0,0,0,.57-1.16l-2.8-2.5A14.33,14.33,0,0,0,184.38,168.9Z" style="fill:#37474F"></path><path d="M184.38,168.9a14.58,14.58,0,0,0,.24-2.27l3.45-.9c0-.45,0-.89-.09-1.33l-3.6-.86a15.82,15.82,0,0,0-1.52-4.43l2.41-2.54c-.24-.39-.49-.77-.75-1.15l-3.42,1a16,16,0,0,0-3.49-3.22l.73-3.5c-.39-.24-.79-.45-1.2-.66l-2.32,2.63a15.37,15.37,0,0,0-2.23-.75,14.44,14.44,0,0,0-2.3-.41L169.14,147c-.44,0-.89,0-1.33,0l-.61,3.53a13.87,13.87,0,0,0-4.34,1.22l-2.72-2.59c-.38.21-.75.43-1.1.67l1.26,3.49a13.14,13.14,0,0,0-3,3.26l-3.57-1c-.2.37-.39.76-.57,1.15l2.8,2.51a13.69,13.69,0,0,0-.6,2.18,15.78,15.78,0,0,0-.25,2.26l-3.45.91c0,.44.05.89.1,1.33l3.59.86a15.46,15.46,0,0,0,1.53,4.42l-2.41,2.54c.23.39.48.78.75,1.15l3.41-1a16.51,16.51,0,0,0,3.49,3.23l-.73,3.5c.39.23.8.45,1.21.65l2.32-2.62a16.22,16.22,0,0,0,2.23.75,15.52,15.52,0,0,0,2.29.41l1.15,3.51c.45,0,.89,0,1.33,0l.62-3.54a13.86,13.86,0,0,0,4.34-1.21l2.72,2.59c.37-.21.74-.44,1.1-.68L179.44,177a13.15,13.15,0,0,0,3-3.27l3.57,1a12.46,12.46,0,0,0,.57-1.16l-2.8-2.5A14.33,14.33,0,0,0,184.38,168.9Z" style="fill:#fff;opacity:0.2"></path><ellipse cx="169.87" cy="165.18" rx="9.01" ry="9.66" transform="translate(-66.95 172.64) rotate(-46)" style="opacity:0.30000000000000004"></ellipse><path d="M152.16,147.92l-3.54.06a19.3,19.3,0,0,0-1.78-2.75l1.61-3a24,24,0,0,0-3.37-3.16l-2.92,1.83a19.37,19.37,0,0,0-2.85-1.59l-.19-3.55a21.81,21.81,0,0,0-4.39-1.15l-1.51,3.1c-.53,0-1.06-.07-1.59-.07s-1.06,0-1.58.07l-1.94-3.1a19.69,19.69,0,0,0-4.23,1.15l.31,3.55a16.82,16.82,0,0,0-2.64,1.59L118.38,139a19.51,19.51,0,0,0-2.93,3.16l2,3a15.8,15.8,0,0,0-1.4,2.75l-3.55-.06a19.62,19.62,0,0,0-.85,4.3l3.22,1.73c0,.52,0,1.05,0,1.58s.1,1.07.18,1.59l-3,1.72a22.52,22.52,0,0,0,1.45,4.31l3.55-.06a18.47,18.47,0,0,0,1.78,2.75l-1.61,3a24,24,0,0,0,3.37,3.16l2.92-1.83a19.37,19.37,0,0,0,2.85,1.59l.19,3.55A21.81,21.81,0,0,0,131,176.5l1.51-3.1c.52,0,1,.07,1.59.07s1.06,0,1.58-.07l1.94,3.1a19.69,19.69,0,0,0,4.23-1.15l-.31-3.55a16.28,16.28,0,0,0,2.63-1.59l3.17,1.83a19.13,19.13,0,0,0,2.94-3.16l-2-3a15.8,15.8,0,0,0,1.4-2.75l3.55.06a20.19,20.19,0,0,0,.85-4.31l-3.22-1.72c0-.52,0-1.05,0-1.59s-.1-1.06-.18-1.58l3-1.73A22,22,0,0,0,152.16,147.92Z" style="fill:#37474F"></path><path d="M152.16,147.92l-3.54.06a19.3,19.3,0,0,0-1.78-2.75l1.61-3a24,24,0,0,0-3.37-3.16l-2.92,1.83a19.37,19.37,0,0,0-2.85-1.59l-.19-3.55a21.81,21.81,0,0,0-4.39-1.15l-1.51,3.1c-.53,0-1.06-.07-1.59-.07s-1.06,0-1.58.07l-1.94-3.1a19.69,19.69,0,0,0-4.23,1.15l.31,3.55a16.82,16.82,0,0,0-2.64,1.59L118.38,139a19.51,19.51,0,0,0-2.93,3.16l2,3a15.8,15.8,0,0,0-1.4,2.75l-3.55-.06a19.62,19.62,0,0,0-.85,4.3l3.22,1.73c0,.52,0,1.05,0,1.58s.1,1.07.18,1.59l-3,1.72a22.52,22.52,0,0,0,1.45,4.31l3.55-.06a18.47,18.47,0,0,0,1.78,2.75l-1.61,3a24,24,0,0,0,3.37,3.16l2.92-1.83a19.37,19.37,0,0,0,2.85,1.59l.19,3.55A21.81,21.81,0,0,0,131,176.5l1.51-3.1c.52,0,1,.07,1.59.07s1.06,0,1.58-.07l1.94,3.1a19.69,19.69,0,0,0,4.23-1.15l-.31-3.55a16.28,16.28,0,0,0,2.63-1.59l3.17,1.83a19.13,19.13,0,0,0,2.94-3.16l-2-3a15.8,15.8,0,0,0,1.4-2.75l3.55.06a20.19,20.19,0,0,0,.85-4.31l-3.22-1.72c0-.52,0-1.05,0-1.59s-.1-1.06-.18-1.58l3-1.73A22,22,0,0,0,152.16,147.92Z" style="fill:#fff;opacity:0.30000000000000004"></path><path d="M147.48,155.53a13.42,13.42,0,0,1-13.57,14.6,15.89,15.89,0,0,1-15.62-14.6,13.42,13.42,0,0,1,13.57-14.59A15.89,15.89,0,0,1,147.48,155.53Z" style="opacity:0.4"></path><path d="M135.75,155.53a2.71,2.71,0,0,1-2.75,3,3.21,3.21,0,0,1-3.16-3,2.72,2.72,0,0,1,2.75-2.95A3.21,3.21,0,0,1,135.75,155.53Z" style="fill:#263238"></path><path d="M172.82,165.18a2.71,2.71,0,0,1-2.75,3,3.21,3.21,0,0,1-3.16-3,2.72,2.72,0,0,1,2.75-3A3.21,3.21,0,0,1,172.82,165.18Z" style="fill:#263238"></path><path d="M168.79,334.06h-38L162.12,78.31h30.62a9.64,9.64,0,0,1,7,3Z" style="fill:#fff;opacity:0.2"></path><polygon points="120.31 334.06 111.75 334.06 143.12 78.31 151.68 78.31 120.31 334.06" style="fill:#fff;opacity:0.2"></polygon><rect x="189.04" y="108.03" width="9.65" height="1" style="fill:#263238"></rect><rect x="189.23" y="110.89" width="9.65" height="1" style="fill:#263238"></rect><rect x="189.43" y="113.74" width="9.65" height="1" style="fill:#263238"></rect><path d="M195.34,329.71h-10.5l-.74-10.5h10.5Zm-9.57-1h8.5l-.6-8.5h-8.49Z" style="fill:#fff"></path><path d="M143.18,330.61l-9.6-5.65,8.81-5.64Zm-7.69-5.68,6.56,3.85-.54-7.71Z" style="fill:#fff"></path><path d="M165.65,329.71a5.69,5.69,0,0,1-5.58-5.21,4.89,4.89,0,0,1,4.92-5.29,5.69,5.69,0,0,1,5.58,5.22,4.86,4.86,0,0,1-4.92,5.28Zm-.66-9.5a3.89,3.89,0,0,0-2.89,1.23,3.94,3.94,0,0,0-1,3,4.66,4.66,0,0,0,4.58,4.28,3.88,3.88,0,0,0,3.92-4.21h0A4.67,4.67,0,0,0,165,320.21Z" style="fill:#fff"></path><path d="M83.46,141.7a.5.5,0,0,1-.5-.46l-2.43-33.17a.5.5,0,1,1,1-.08L84,141.17a.5.5,0,0,1-.46.53Z" style="fill:#37474F"></path><path d="M80.56,102.17a.5.5,0,0,1-.5-.46L79.42,93a.5.5,0,0,1,1-.07l.64,8.75a.5.5,0,0,1-.46.54Z" style="fill:#37474F"></path><path d="M109.08,113.3l.23-.63a2.65,2.65,0,0,0,1.49.48c.68,0,1-.24.93-.57-.07-1-2.63-.33-2.75-2,0-.7.48-1.31,1.68-1.31a2.93,2.93,0,0,1,1.49.39l-.21.64a2.55,2.55,0,0,0-1.24-.35c-.68,0-.93.26-.91.6.06.93,2.62.32,2.74,1.93,0,.71-.48,1.31-1.69,1.31A2.92,2.92,0,0,1,109.08,113.3Z" style="fill:#263238"></path><path d="M115.12,112.22l.11,1.55h-.82l-.11-1.54-1.92-2.85h.87l1.44,2.14,1.15-2.14h.8Z" style="fill:#263238"></path><path d="M117,113.3l.24-.63a2.61,2.61,0,0,0,1.48.48c.69,0,1-.24.94-.57-.07-1-2.63-.33-2.75-2,0-.7.47-1.31,1.68-1.31a3,3,0,0,1,1.49.39l-.22.64a2.48,2.48,0,0,0-1.23-.35c-.68,0-.94.26-.91.6.06.93,2.62.32,2.74,1.93,0,.71-.48,1.31-1.69,1.31A3,3,0,0,1,117,113.3Z" style="fill:#263238"></path><path d="M121.9,110.07h-1.45l0-.69h3.73l0,.69h-1.45l.26,3.7h-.82Z" style="fill:#263238"></path><path d="M128.29,113.08l.05.69h-3.29l-.31-4.39H128l0,.68h-2.39l.08,1.14h2.12l0,.67h-2.12l.09,1.21Z" style="fill:#263238"></path><path d="M133.29,113.77l-.21-2.91-1.28,2.4h-.36l-1.61-2.37.2,2.88h-.78l-.3-4.39h.67l1.95,2.91,1.5-2.91h.68l.31,4.39Z" style="fill:#263238"></path><path d="M136.81,111.85l-.17-2.47h.81l.17,2.44c.07.91.5,1.29,1.21,1.29s1.08-.38,1-1.29l-.17-2.44h.8l.17,2.47a1.64,1.64,0,0,1-1.78,2A1.93,1.93,0,0,1,136.81,111.85Z" style="fill:#263238"></path><path d="M145.41,110.94c.07,1-.61,1.56-1.76,1.56h-1l.09,1.27h-.82l-.3-4.39h1.8C144.59,109.38,145.34,110,145.41,110.94Zm-.82,0c0-.55-.43-.87-1.15-.87h-.95l.12,1.74h.95C144.28,111.81,144.63,111.49,144.59,110.94Z" style="fill:#263238"></path><path d="M146.12,109.38H148a2.36,2.36,0,0,1,2.55,2.19,2,2,0,0,1-2.24,2.2h-1.92Zm2.14,3.7a1.36,1.36,0,0,0,1.51-1.51,1.59,1.59,0,0,0-1.72-1.5H147l.21,3Z" style="fill:#263238"></path><path d="M154.32,112.75h-2.19l-.36,1h-.84l1.67-4.39h.8l2.29,4.39h-.86Zm-.31-.64-1-1.92-.69,1.92Z" style="fill:#263238"></path><path d="M156.66,110.07h-1.45l-.05-.69h3.72l.05.69h-1.45l.25,3.7h-.81Z" style="fill:#263238"></path><path d="M163.05,113.08l0,.69h-3.29l-.31-4.39h3.2l.05.68h-2.39l.08,1.14h2.12l.05.67h-2.12l.08,1.21Z" style="fill:#263238"></path><polygon points="98.16 114.9 94.65 111.39 98.16 107.88 98.87 108.58 96.06 111.39 98.87 114.19 98.16 114.9" style="fill:#263238"></polygon><rect x="95.36" y="110.89" width="10.46" height="1" style="fill:#263238"></rect><path d="M172,90.66A2.06,2.06,0,0,1,169.94,93a2.56,2.56,0,0,1-2.49-2.29,2.07,2.07,0,0,1,2.09-2.29A2.54,2.54,0,0,1,172,90.66Z" style="fill:#fff"></path><path d="M172.94,89.47a.47.47,0,0,1-.46-.43c-.1-1.05-1.43-1.86-3-1.86s-2.77,1.24-2.71,1.86a.39.39,0,0,1-.39.43.48.48,0,0,1-.47-.43c-.1-1.22,1.49-2.71,3.49-2.71s3.83,1.19,4,2.71A.39.39,0,0,1,172.94,89.47Z" style="fill:#fff"></path><path d="M173.66,87.49a.48.48,0,0,1-.47-.43c-.09-1-1.87-1.86-4-1.86s-3.7,1.31-3.65,1.86a.38.38,0,0,1-.39.43.47.47,0,0,1-.46-.43c-.11-1.22,1.91-2.71,4.43-2.71s4.77,1.17,4.9,2.71A.38.38,0,0,1,173.66,87.49Z" style="fill:#fff"></path><path d="M174.38,85.51a.48.48,0,0,1-.47-.42c-.07-.9-2.07-1.87-4.92-1.87s-4.64,1.39-4.6,1.87a.38.38,0,0,1-.39.42.47.47,0,0,1-.46-.42c-.1-1.22,2.35-2.72,5.38-2.72,3.25,0,5.71,1.14,5.84,2.72A.38.38,0,0,1,174.38,85.51Z" style="fill:#fff"></path><polygon points="179.24 92.95 177.89 92.95 177.55 89.04 178.9 89.04 179.24 92.95" style="fill:#fff"></polygon><polygon points="181.09 92.95 179.74 92.95 179.26 87.48 180.61 87.48 181.09 92.95" style="fill:#fff"></polygon><polygon points="182.94 92.95 181.59 92.95 180.98 85.92 182.33 85.92 182.94 92.95" style="fill:#fff"></polygon><polygon points="184.79 92.95 183.45 92.95 182.69 84.36 184.04 84.36 184.79 92.95" style="fill:#fff"></polygon><polygon points="186.65 92.95 185.3 92.95 184.41 82.8 185.76 82.8 186.65 92.95" style="fill:#fff"></polygon><polygon points="196.78 92.95 191.73 92.95 190.94 83.94 195.99 83.94 196.78 92.95" style="fill:#fff"></polygon><polygon points="195.06 83.94 191.88 83.94 191.82 83.28 195 83.28 195.06 83.94" style="fill:#fff"></polygon></g></svg>