<svg width="48" height="48" viewBox="0 0 48 48" fill="none" xmlns="http://www.w3.org/2000/svg">
<path d="M12 19.5498C11.8167 19.5498 11.6377 19.5248 11.463 19.4748C11.2877 19.4248 11.125 19.3581 10.975 19.2748C10.2917 18.8581 9.575 18.5414 8.825 18.3248C8.075 18.1081 7.3 17.9998 6.5 17.9998C5.8 17.9998 5.11267 18.0914 4.438 18.2748C3.76267 18.4581 3.11667 18.7164 2.5 19.0498C2.15 19.2331 1.81267 19.2248 1.488 19.0248C1.16267 18.8248 1 18.5331 1 18.1498V6.09977C1 5.91644 1.046 5.74144 1.138 5.57477C1.22933 5.40811 1.36667 5.28311 1.55 5.19977C2.31667 4.79977 3.11667 4.49977 3.95 4.29977C4.78333 4.09977 5.63333 3.99977 6.5 3.99977C7.46667 3.99977 8.41267 4.12477 9.338 4.37477C10.2627 4.62477 11.15 4.99977 12 5.49977V17.5998C12.85 17.0664 13.7417 16.6664 14.675 16.3998C15.6083 16.1331 16.55 15.9998 17.5 15.9998C18.1 15.9998 18.6877 16.0498 19.263 16.1498C19.8377 16.2498 20.4167 16.3998 21 16.5998V4.59977C21.25 4.68311 21.496 4.77044 21.738 4.86177C21.9793 4.95377 22.2167 5.06644 22.45 5.19977C22.6333 5.28311 22.771 5.40811 22.863 5.57477C22.9543 5.74144 23 5.91644 23 6.09977V18.1498C23 18.5331 22.8377 18.8248 22.513 19.0248C22.1877 19.2248 21.85 19.2331 21.5 19.0498C20.8833 18.7164 20.2373 18.4581 19.562 18.2748C18.8873 18.0914 18.2 17.9998 17.5 17.9998C16.7 17.9998 15.925 18.1081 15.175 18.3248C14.425 18.5414 13.7083 18.8581 13.025 19.2748C12.875 19.3581 12.7127 19.4248 12.538 19.4748C12.3627 19.5248 12.1833 19.5498 12 19.5498ZM14.825 14.2498C14.6583 14.3998 14.4793 14.4288 14.288 14.3368C14.096 14.2454 14 14.0914 14 13.8748V5.69977C14 5.66644 14.05 5.54977 14.15 5.34977L18.15 1.34977C18.3167 1.18311 18.5 1.14144 18.7 1.22477C18.9 1.30811 19 1.46644 19 1.69977V10.2748C19 10.3414 18.9417 10.4664 18.825 10.6498L14.825 14.2498Z" fill="#163760"/>
</svg>
