<svg width="48" height="48" viewBox="0 0 48 48" fill="none" xmlns="http://www.w3.org/2000/svg">
<g clip-path="url(#clip0_44_354)">
<path d="M44 10.36L21.18 33.2L12.7 24.72L15.52 21.9L21.18 27.56L41.18 7.56L44 10.36ZM24 40C15.18 40 8 32.82 8 24C8 15.18 15.18 8 24 8C27.14 8 30.08 8.92 32.56 10.5L35.46 7.6C32.2 5.34 28.26 4 24 4C12.96 4 4 12.96 4 24C4 35.04 12.96 44 24 44C27.46 44 30.72 43.12 33.56 41.56L30.56 38.56C28.56 39.48 26.34 40 24 40ZM38 30H32V34H38V40H42V34H48V30H42V24H38V30Z" fill="#001B7A"/>
</g>
<defs>
<clipPath id="clip0_44_354">
<rect width="48" height="48" fill="white"/>
</clipPath>
</defs>
</svg>
