<svg width="48" height="48" viewBox="0 0 48 48" fill="none" xmlns="http://www.w3.org/2000/svg">
<path d="M28 44C26.1333 44 24.375 43.7 22.725 43.1C21.075 42.5 19.5667 41.6667 18.2 40.6L15.4 43.4C15 43.8 14.5333 44 14 44C13.4667 44 13 43.8 12.6 43.4C12.2 43 12 42.5333 12 42C12 41.4667 12.2 41 12.6 40.6L15.4 37.8C14.3333 36.4333 13.5 34.925 12.9 33.275C12.3 31.625 12 29.8667 12 28C12 23.4 13.5917 19.5833 16.775 16.55C19.9583 13.5167 23.7 12 28 12H40C41.1 12 42.0417 12.3917 42.825 13.175C43.6083 13.9583 44 14.9 44 16V28C44 30.0667 43.6083 32.0667 42.825 34C42.0417 35.9333 40.8667 37.7 39.3 39.3C37.7 40.8667 35.9333 42.0417 34 42.825C32.0667 43.6083 30.0667 44 28 44ZM11 20C11 17.5 11.875 15.375 13.625 13.625C15.375 11.875 17.5 11 20 11C17.5 11 15.375 10.125 13.625 8.375C11.875 6.625 11 4.5 11 2C11 4.5 10.125 6.625 8.375 8.375C6.625 10.125 4.5 11 2 11C4.5 11 6.625 11.875 8.375 13.625C10.125 15.375 11 17.5 11 20ZM28.6 24.6L19.65 33.55C19.25 33.95 19.0583 34.4167 19.075 34.95C19.0917 35.4833 19.2833 35.95 19.65 36.35C20.05 36.75 20.5167 36.9583 21.05 36.975C21.5833 36.9917 22.05 36.8 22.45 36.4L31.4 27.4C31.8 27 32 26.5333 32 26C32 25.4667 31.8 25 31.4 24.6C31 24.2 30.5333 24 30 24C29.4667 24 29 24.2 28.6 24.6Z" fill="#001B7A"/>
</svg>
