<svg width="227" height="46" viewBox="0 0 227 46" fill="none" xmlns="http://www.w3.org/2000/svg">
<path d="M0.045 26.9336L0.075 26.7836L0.24 26.7236C0.67 26.5736 0.925 26.2836 1.005 25.8536L1.785 21.6836C1.895 21.1336 2 20.5736 2.1 20.0036C2.2 19.4236 2.31 18.7836 2.43 18.0836C2.5 17.6736 2.34 17.3936 1.95 17.2436L1.8 17.1836L1.83 17.0336H5.1C6.39 17.0336 7.325 17.2836 7.905 17.7836C8.495 18.2736 8.79 18.9236 8.79 19.7336C8.79 20.3136 8.62 20.8586 8.28 21.3686C7.95 21.8686 7.445 22.2736 6.765 22.5836C6.095 22.8836 5.25 23.0336 4.23 23.0336H3.57C3.49 23.4336 3.405 23.8786 3.315 24.3686C3.235 24.8486 3.15 25.3336 3.06 25.8236C2.99 26.2836 3.17 26.5886 3.6 26.7386L3.78 26.7836L3.75 26.9336H0.045ZM3.63 22.7336H4.185C4.945 22.7336 5.56 22.4636 6.03 21.9236C6.5 21.3736 6.735 20.6186 6.735 19.6586C6.735 18.9086 6.585 18.3336 6.285 17.9336C5.985 17.5336 5.555 17.3336 4.995 17.3336H4.635C4.475 18.2336 4.31 19.1336 4.14 20.0336C3.97 20.9336 3.8 21.8336 3.63 22.7336ZM11.7578 27.1586C11.2378 27.1586 10.7628 27.0586 10.3328 26.8586C9.90277 26.6486 9.56277 26.3386 9.31277 25.9286C9.06277 25.5086 8.93777 24.9786 8.93777 24.3386C8.93777 23.6986 9.04277 23.0886 9.25277 22.5086C9.47277 21.9286 9.77777 21.4136 10.1678 20.9636C10.5578 20.5036 11.0128 20.1436 11.5328 19.8836C12.0528 19.6236 12.6178 19.4936 13.2278 19.4936C13.7578 19.4936 14.2278 19.5986 14.6378 19.8086C15.0578 20.0086 15.3878 20.3136 15.6278 20.7236C15.8778 21.1336 16.0028 21.6586 16.0028 22.2986C16.0028 22.9286 15.8928 23.5386 15.6728 24.1286C15.4628 24.7086 15.1628 25.2286 14.7728 25.6886C14.3928 26.1386 13.9428 26.4986 13.4228 26.7686C12.9128 27.0286 12.3578 27.1586 11.7578 27.1586ZM11.9378 26.8586C12.2478 26.8586 12.5278 26.7186 12.7778 26.4386C13.0378 26.1486 13.2628 25.7686 13.4528 25.2986C13.6428 24.8186 13.7878 24.2936 13.8878 23.7236C13.9878 23.1436 14.0378 22.5686 14.0378 21.9986C14.0378 21.1686 13.9528 20.5936 13.7828 20.2736C13.6128 19.9536 13.3928 19.7936 13.1228 19.7936C12.8028 19.7936 12.5078 19.9336 12.2378 20.2136C11.9678 20.4936 11.7328 20.8686 11.5328 21.3386C11.3328 21.8086 11.1778 22.3286 11.0678 22.8986C10.9578 23.4686 10.9028 24.0386 10.9028 24.6086C10.9028 25.4586 11.0028 26.0486 11.2028 26.3786C11.4028 26.6986 11.6478 26.8586 11.9378 26.8586ZM18.7714 27.0686L18.6364 26.9486C18.5364 25.8686 18.4314 24.8636 18.3214 23.9336C18.2214 23.0036 18.1164 22.1036 18.0064 21.2336C17.9864 21.0236 17.9414 20.8836 17.8714 20.8136C17.8114 20.7436 17.7314 20.7086 17.6314 20.7086C17.5314 20.7086 17.4164 20.7536 17.2864 20.8436C17.1564 20.9236 17.0214 21.0336 16.8814 21.1736L16.7014 20.9936C17.0514 20.4936 17.3914 20.1186 17.7214 19.8686C18.0614 19.6186 18.4014 19.4936 18.7414 19.4936C19.1214 19.4936 19.4014 19.5986 19.5814 19.8086C19.7714 20.0186 19.8814 20.3536 19.9114 20.8136C19.9714 21.4536 20.0264 22.1686 20.0764 22.9586C20.1364 23.7386 20.1864 24.5136 20.2264 25.2836C20.6864 24.4436 21.1464 23.5636 21.6064 22.6436C22.0664 21.7136 22.5364 20.7636 23.0164 19.7936H23.9314C23.9714 20.0836 24.0164 20.4736 24.0664 20.9636C24.1164 21.4536 24.1614 21.9836 24.2014 22.5536C24.2514 23.1236 24.3014 23.6836 24.3514 24.2336C24.4014 24.7736 24.4464 25.2436 24.4864 25.6436C24.8364 25.1936 25.1464 24.7836 25.4164 24.4136C25.6964 24.0436 25.9764 23.6286 26.2564 23.1686C26.4164 22.9086 26.5214 22.6486 26.5714 22.3886C26.6214 22.1286 26.5964 21.8736 26.4964 21.6236L26.2414 20.9636C26.0914 20.5536 26.1064 20.1986 26.2864 19.8986C26.4764 19.5986 26.7364 19.4486 27.0664 19.4486C27.3864 19.4486 27.6214 19.5536 27.7714 19.7636C27.9314 19.9636 28.0114 20.2236 28.0114 20.5436C28.0114 20.7736 27.9564 21.0236 27.8464 21.2936C27.7464 21.5536 27.5614 21.9236 27.2914 22.4036C26.9114 23.0736 26.4214 23.8036 25.8214 24.5936C25.2214 25.3836 24.5464 26.1736 23.7964 26.9636L22.9114 27.0686L22.7764 26.9486C22.6964 26.1686 22.6164 25.4086 22.5364 24.6686C22.4664 23.9286 22.3764 23.1136 22.2664 22.2236C21.8964 23.0036 21.4864 23.8136 21.0364 24.6536C20.5964 25.4836 20.1564 26.2536 19.7164 26.9636L18.7714 27.0686ZM30.8684 27.1586C30.1184 27.1586 29.5084 26.9136 29.0384 26.4236C28.5684 25.9336 28.3334 25.2386 28.3334 24.3386C28.3334 23.6986 28.4434 23.0886 28.6634 22.5086C28.8834 21.9286 29.1884 21.4136 29.5784 20.9636C29.9784 20.5036 30.4384 20.1436 30.9584 19.8836C31.4784 19.6236 32.0434 19.4936 32.6534 19.4936C33.2834 19.4936 33.7634 19.6386 34.0934 19.9286C34.4334 20.2086 34.6034 20.5836 34.6034 21.0536C34.6034 21.4436 34.4184 21.8286 34.0484 22.2086C33.6884 22.5886 33.1784 22.9336 32.5184 23.2436C31.8584 23.5436 31.0834 23.7736 30.1934 23.9336C30.2034 24.6236 30.3534 25.1286 30.6434 25.4486C30.9334 25.7686 31.3334 25.9286 31.8434 25.9286C32.2734 25.9286 32.6684 25.8136 33.0284 25.5836C33.3884 25.3436 33.6934 25.0636 33.9434 24.7436L34.0934 24.8486C33.8934 25.2386 33.6334 25.6086 33.3134 25.9586C33.0034 26.3086 32.6434 26.5986 32.2334 26.8286C31.8234 27.0486 31.3684 27.1586 30.8684 27.1586ZM32.5484 19.8986C32.3184 19.8986 32.0684 19.9986 31.7984 20.1986C31.5384 20.3986 31.2884 20.6736 31.0484 21.0236C30.8184 21.3636 30.6234 21.7586 30.4634 22.2086C30.3134 22.6486 30.2234 23.1186 30.1934 23.6186C31.2934 23.3186 32.0734 22.9236 32.5334 22.4336C33.0034 21.9436 33.2384 21.3886 33.2384 20.7686C33.2384 20.4686 33.1734 20.2486 33.0434 20.1086C32.9134 19.9686 32.7484 19.8986 32.5484 19.8986ZM35.0992 27.0386L34.9492 26.9336L36.0892 21.4436C36.1392 21.1836 36.1242 20.9936 36.0442 20.8736C35.9642 20.7436 35.8292 20.6386 35.6392 20.5586L35.4142 20.4536L35.4442 20.3036L38.0542 19.4786L38.2042 19.6136L37.7992 22.0886C38.0092 21.6086 38.2542 21.1736 38.5342 20.7836C38.8142 20.3936 39.1092 20.0836 39.4192 19.8536C39.7292 19.6136 40.0392 19.4936 40.3492 19.4936C40.6592 19.4936 40.9092 19.5786 41.0992 19.7486C41.2892 19.9086 41.3842 20.1236 41.3842 20.3936C41.3842 20.6736 41.2992 20.9036 41.1292 21.0836C40.9692 21.2636 40.7492 21.3536 40.4692 21.3536C40.2492 21.3536 40.0392 21.2986 39.8392 21.1886C39.6392 21.0686 39.4442 20.8986 39.2542 20.6786C38.9042 20.9386 38.6042 21.2786 38.3542 21.6986C38.1042 22.1086 37.8742 22.5586 37.6642 23.0486L37.5142 23.7386C37.4042 24.2686 37.2992 24.7986 37.1992 25.3286C37.0992 25.8586 36.9992 26.3936 36.8992 26.9336L35.0992 27.0386ZM43.6711 27.1586C42.9211 27.1586 42.3111 26.9136 41.8411 26.4236C41.3711 25.9336 41.1361 25.2386 41.1361 24.3386C41.1361 23.6986 41.2461 23.0886 41.4661 22.5086C41.6861 21.9286 41.9911 21.4136 42.3811 20.9636C42.7811 20.5036 43.2411 20.1436 43.7611 19.8836C44.2811 19.6236 44.8461 19.4936 45.4561 19.4936C46.0861 19.4936 46.5661 19.6386 46.8961 19.9286C47.2361 20.2086 47.4061 20.5836 47.4061 21.0536C47.4061 21.4436 47.2211 21.8286 46.8511 22.2086C46.4911 22.5886 45.9811 22.9336 45.3211 23.2436C44.6611 23.5436 43.8861 23.7736 42.9961 23.9336C43.0061 24.6236 43.1561 25.1286 43.4461 25.4486C43.7361 25.7686 44.1361 25.9286 44.6461 25.9286C45.0761 25.9286 45.4711 25.8136 45.8311 25.5836C46.1911 25.3436 46.4961 25.0636 46.7461 24.7436L46.8961 24.8486C46.6961 25.2386 46.4361 25.6086 46.1161 25.9586C45.8061 26.3086 45.4461 26.5986 45.0361 26.8286C44.6261 27.0486 44.1711 27.1586 43.6711 27.1586ZM45.3511 19.8986C45.1211 19.8986 44.8711 19.9986 44.6011 20.1986C44.3411 20.3986 44.0911 20.6736 43.8511 21.0236C43.6211 21.3636 43.4261 21.7586 43.2661 22.2086C43.1161 22.6486 43.0261 23.1186 42.9961 23.6186C44.0961 23.3186 44.8761 22.9236 45.3361 22.4336C45.8061 21.9436 46.0411 21.3886 46.0411 20.7686C46.0411 20.4686 45.9761 20.2486 45.8461 20.1086C45.7161 19.9686 45.5511 19.8986 45.3511 19.8986ZM49.3147 27.1586C48.9147 27.1586 48.5597 27.0036 48.2497 26.6936C47.9497 26.3836 47.7997 25.8436 47.7997 25.0736C47.7997 24.5536 47.8997 24.0286 48.0997 23.4986C48.2997 22.9686 48.5647 22.4686 48.8947 21.9986C49.2347 21.5186 49.6147 21.0886 50.0347 20.7086C50.4647 20.3286 50.9097 20.0336 51.3697 19.8236C51.8297 19.6036 52.2797 19.4936 52.7197 19.4936C52.9197 19.4936 53.1097 19.5236 53.2897 19.5836L53.5147 18.4586C53.6047 18.0086 53.4397 17.7036 53.0197 17.5436L52.6897 17.4086L52.7197 17.2586L55.6297 16.4186L55.7347 16.5236L53.8897 25.2536C53.8597 25.4136 53.8347 25.5486 53.8147 25.6586C53.8047 25.7586 53.7997 25.8586 53.7997 25.9586C53.7997 26.1686 53.8847 26.2736 54.0547 26.2736C54.1747 26.2736 54.3347 26.2136 54.5347 26.0936C54.7447 25.9636 54.9547 25.7736 55.1647 25.5236L55.3297 25.6736C55.0897 26.0736 54.7647 26.4236 54.3547 26.7236C53.9447 27.0136 53.5097 27.1586 53.0497 27.1586C52.7197 27.1586 52.4597 27.0536 52.2697 26.8436C52.0797 26.6236 51.9847 26.3436 51.9847 26.0036C51.9847 25.8336 51.9997 25.6336 52.0297 25.4036C51.6197 25.9236 51.1697 26.3486 50.6797 26.6786C50.1997 26.9986 49.7447 27.1586 49.3147 27.1586ZM49.6297 24.5936C49.6297 25.0936 49.7097 25.4536 49.8697 25.6736C50.0297 25.8936 50.2397 26.0036 50.4997 26.0036C50.9597 26.0036 51.4897 25.6536 52.0897 24.9536C52.0997 24.9036 52.1097 24.8486 52.1197 24.7886L53.0347 20.3636C52.7847 20.1336 52.4897 20.0186 52.1497 20.0186C51.8997 20.0186 51.6647 20.0786 51.4447 20.1986C51.2347 20.3086 51.0347 20.4686 50.8447 20.6786C50.6147 20.9386 50.4047 21.2886 50.2147 21.7286C50.0347 22.1586 49.8897 22.6286 49.7797 23.1386C49.6797 23.6386 49.6297 24.1236 49.6297 24.5936ZM61.2013 27.1586C60.7113 27.1586 60.3113 27.0286 60.0013 26.7686C59.7013 26.4986 59.5513 26.0936 59.5513 25.5536C59.5513 25.1936 59.5913 24.7936 59.6713 24.3536C59.7613 23.9136 59.8513 23.4736 59.9413 23.0336L60.8563 18.4136C60.9363 17.9836 60.7813 17.7036 60.3913 17.5736L60.1213 17.4686L60.1363 17.3186L63.0763 16.4786L63.1663 16.5836L62.1613 21.1886C62.5713 20.6786 63.0263 20.2686 63.5263 19.9586C64.0363 19.6486 64.5113 19.4936 64.9513 19.4936C65.3913 19.4936 65.7513 19.6486 66.0313 19.9586C66.3213 20.2686 66.4663 20.7886 66.4663 21.5186C66.4663 22.0786 66.3663 22.6336 66.1663 23.1836C65.9663 23.7236 65.6913 24.2336 65.3413 24.7136C64.9913 25.1936 64.5913 25.6186 64.1413 25.9886C63.7013 26.3486 63.2263 26.6336 62.7163 26.8436C62.2163 27.0536 61.7113 27.1586 61.2013 27.1586ZM61.3213 25.7936C61.3213 26.0436 61.3713 26.2536 61.4713 26.4236C61.5713 26.5836 61.7313 26.6636 61.9513 26.6636C62.4913 26.6636 63.0013 26.3536 63.4813 25.7336C63.6813 25.4736 63.8613 25.1436 64.0213 24.7436C64.1913 24.3436 64.3213 23.9186 64.4113 23.4686C64.5113 23.0186 64.5613 22.5886 64.5613 22.1786C64.5613 21.6386 64.4863 21.2336 64.3363 20.9636C64.1863 20.6936 63.9813 20.5586 63.7213 20.5586C63.4813 20.5586 63.2263 20.6536 62.9563 20.8436C62.6963 21.0336 62.4163 21.2936 62.1163 21.6236L61.7113 23.4836C61.5913 24.0536 61.4963 24.5336 61.4263 24.9236C61.3563 25.3036 61.3213 25.5936 61.3213 25.7936ZM66.5842 30.3836C66.2242 30.3836 65.9292 30.2886 65.6992 30.0986C65.4592 29.9086 65.3392 29.6586 65.3392 29.3486C65.3392 29.0886 65.4342 28.8686 65.6242 28.6886C65.8042 28.5186 66.0292 28.4336 66.2992 28.4336C66.6192 28.4336 66.9142 28.5536 67.1842 28.7936C67.3942 28.9836 67.5992 29.0986 67.7992 29.1386C68.0092 29.1786 68.2242 29.1186 68.4442 28.9586C68.5842 28.8586 68.7142 28.7486 68.8342 28.6286C68.9642 28.5186 69.0942 28.3936 69.2242 28.2536C69.2542 28.2236 69.2842 28.1936 69.3142 28.1636C69.1642 27.0936 69.0142 26.0636 68.8642 25.0736C68.7142 24.0836 68.5592 23.0586 68.3992 21.9986C68.3492 21.6186 68.2992 21.3386 68.2492 21.1586C68.1992 20.9786 68.1442 20.8636 68.0842 20.8136C68.0342 20.7536 67.9692 20.7236 67.8892 20.7236C67.7892 20.7236 67.6742 20.7686 67.5442 20.8586C67.4242 20.9486 67.2842 21.1036 67.1242 21.3236L66.9292 21.1286C67.6292 20.0386 68.3392 19.4936 69.0592 19.4936C69.4392 19.4936 69.7092 19.6186 69.8692 19.8686C70.0392 20.1186 70.1492 20.5186 70.1992 21.0686C70.2992 21.9986 70.3942 22.8886 70.4842 23.7386C70.5742 24.5786 70.6542 25.4686 70.7242 26.4086C71.0742 25.5786 71.3692 24.7536 71.6092 23.9336C71.8492 23.1036 72.0842 22.2086 72.3142 21.2486C72.4842 20.5486 72.6642 20.0736 72.8542 19.8236C73.0542 19.5736 73.3192 19.4486 73.6492 19.4486C73.8692 19.4486 74.0642 19.5186 74.2342 19.6586C74.4042 19.7986 74.4892 19.9836 74.4892 20.2136C74.4892 20.4636 74.4392 20.6986 74.3392 20.9186C74.2492 21.1286 74.1192 21.3936 73.9492 21.7136C73.7892 22.0236 73.6142 22.3486 73.4242 22.6886C73.2342 23.0286 73.0092 23.4086 72.7492 23.8286C72.4692 24.2686 72.1692 24.7436 71.8492 25.2536C71.5392 25.7536 71.1742 26.2986 70.7542 26.8886C70.5242 27.1986 70.2792 27.5236 70.0192 27.8636C69.7692 28.2036 69.4542 28.5686 69.0742 28.9586C68.6742 29.3886 68.2642 29.7336 67.8442 29.9936C67.4342 30.2536 67.0142 30.3836 66.5842 30.3836Z" fill="white"/>
<g clip-path="url(#clip0_53_828)">
<path d="M203.77 25.3599L210.215 8.30762L213.799 8.33247L220.332 25.3599H216.896L215.562 21.822L208.453 21.8007L207.294 25.3617H203.77V25.3599ZM214.341 18.7918L211.963 12.3994L209.584 18.7918H214.341Z" fill="white"/>
<path d="M135.761 8.31836L140.605 20.9221L145.011 8.31836H148.447L142.372 25.186C142.289 25.3245 142.162 25.3422 142.018 25.3618C141.052 25.502 139.777 25.2712 138.774 25.3405L132.236 8.31836H135.76H135.761Z" fill="white"/>
<path d="M186.327 21.2769C185.542 25.3705 180.788 26.7285 177.463 24.616C174.777 22.9083 174.5 18.2094 175.777 15.5307C177.467 11.9892 182.471 11.6378 185.039 14.4088C185.379 14.7763 186.327 16.5142 186.327 16.9278V19.8568H178.223C178.351 20.5491 178.417 21.4456 178.776 22.0509C179.775 23.7356 183.2 23.2225 183.685 21.2769H186.327ZM183.332 17.5491C183.019 13.9615 178.639 14.1425 178.223 17.5491H183.332Z" fill="white"/>
<path d="M189.939 12.9336L192.584 16.6615C192.934 16.7484 192.811 16.5372 192.89 16.4342C193.72 15.3443 194.363 14.0129 195.227 12.9336H198.662L194.481 19.0579L198.662 25.3598H195.403L192.758 21.6319C192.51 21.5698 192.46 21.7846 192.346 21.9248C191.516 22.942 190.808 24.332 189.941 25.3598H186.505L190.87 19.0579L186.682 12.9336H189.941H189.939Z" fill="white"/>
<path d="M170.647 9.7381V12.9334H173.994L173.642 15.4187H170.647V21.7205C170.647 21.7631 171.011 22.4466 171.041 22.4767C171.709 23.1637 172.993 22.7164 173.818 22.6951L174.17 25.3578C172.074 25.759 168.504 25.7608 167.733 23.2347C167.688 23.0909 167.475 22.1323 167.475 22.0738V15.4169H165.361V12.9316H167.475V9.73633H170.647V9.7381Z" fill="white"/>
<path d="M225.97 8.31836H222.798V25.36H225.97V8.31836Z" fill="white"/>
<path d="M163.599 8.31836L163.775 25.36H160.604V8.31836H163.599Z" fill="white"/>
<path d="M188.97 31.484C189.046 31.2017 189.811 31.2248 190.027 31.2993C190.753 31.5461 191.8 34.0029 192.23 34.7698C192.956 35.2243 192.318 34.571 192.318 34.5035V31.4857L192.601 31.2461L193.551 31.4857V36.7225L192.136 36.6391L190.204 33.3497V36.7225H188.97V31.4857V31.484Z" fill="white"/>
<path d="M217.64 31.2604C221.614 30.568 222.034 36.6018 218.461 36.8894C214.91 37.1752 214.54 31.8 217.64 31.2604ZM217.631 32.3166C216.679 32.6006 216.561 34.5817 217.076 35.2971C217.691 36.1527 219.239 35.9202 219.548 34.9563C220 33.5397 219.354 31.8018 217.631 32.3166Z" fill="white"/>
<path d="M156.678 31.2608C158.907 30.8721 160.274 32.6455 159.82 34.781C159.207 37.6674 154.996 37.4881 154.624 34.6709C154.418 33.1106 155.001 31.5537 156.677 31.2626L156.678 31.2608ZM156.675 32.3206C155.694 32.5443 155.704 34.007 155.882 34.8218C156.162 36.1106 158.188 36.1994 158.588 34.955C159.068 33.4621 158.419 31.923 156.677 32.3188L156.675 32.3206Z" fill="white"/>
<path d="M182.804 33.1708C182.506 33.1477 182.136 33.2365 181.857 33.1477C181.398 32.9986 181.674 32.1146 180.238 32.2744C179.063 32.4057 178.878 34.0193 179.179 34.9566C179.528 36.043 181.593 36.2809 181.745 35.0365C181.81 34.5057 180.837 34.8679 180.51 34.7702V33.8809H182.802C183.248 36.2188 181.581 37.4294 179.456 36.6306C177.069 35.7342 177.37 31.7045 179.934 31.259C181.243 31.0317 182.885 31.6211 182.802 33.1708H182.804Z" fill="white"/>
<path d="M145.402 31.2609C145.802 31.1917 146.158 31.1917 146.556 31.2609C149.095 31.7029 149.296 35.7645 147.034 36.6326C142.938 38.2054 141.886 31.8733 145.402 31.2609ZM145.399 32.3207C143.924 32.6562 144.058 36.3255 146.386 35.8C147.901 35.4574 147.929 31.7473 145.399 32.3207Z" fill="white"/>
<path d="M221.917 31.4849L222.205 31.2435C222.756 31.0695 225.207 31.4015 225.624 31.8328C226.232 32.4595 226.199 34.2648 225.105 34.4317L225.082 34.6784L226.148 36.6329C224.666 37.2116 224.495 35.85 224.01 34.7938L223.151 34.7707V36.7252H221.917V31.4884V31.4849ZM223.149 33.8831C225.57 34.3092 225.577 31.8612 223.149 32.2837V33.8831Z" fill="white"/>
<path d="M199.894 31.4848C200.294 30.9345 200.893 31.3623 201.388 31.3996C201.793 31.4298 202.22 31.3463 202.618 31.4032C204.212 31.6286 204.547 33.8884 203.056 34.5133L204.124 36.6328L202.912 36.7003L201.987 34.792L201.127 34.7689V36.7233H199.894V31.4866V31.4848ZM201.125 33.8831C203.546 34.3091 203.553 31.8612 201.125 32.2836V33.8831Z" fill="white"/>
<path d="M138.228 31.2178C139.622 31.5906 141.935 30.8059 142.245 32.7693C142.453 34.09 141.214 34.3989 141.214 34.5089L142.457 36.719L141.07 36.6977C140.635 35.8439 140.501 34.4788 139.285 34.7663V36.7208L138.052 36.719C137.967 36.6498 138.228 36.4936 138.228 36.4545V31.2178ZM141.028 32.4817L139.285 32.2829V33.8823L141.028 33.6835V32.4817Z" fill="white"/>
<path d="M164.832 32.9937L163.89 33.0008C163.559 32.2091 162.685 31.9694 162.015 32.5535C161.784 33.4233 163.571 33.4765 164.119 33.8032C165.777 34.7884 164.905 36.7553 163.139 36.8902C161.911 36.9825 160.713 36.2866 160.78 34.9482H162.015L162.033 35.6369C162.595 35.8819 163.278 35.9707 163.786 35.5553C163.939 34.4511 162.602 34.5754 161.83 34.1564C160.907 33.6541 160.622 32.9564 161.092 31.9747C161.716 30.6718 165.162 31.0481 164.834 32.9937H164.832Z" fill="white"/>
<path d="M187.737 31.2178V32.2829H185.094V33.5255H187.561V34.4131H185.094V35.8332L187.654 35.677C188.033 35.9007 187.763 36.332 187.913 36.7208H183.861C184.127 35.6308 184.095 34.2249 184.046 33.0728C184.018 32.4391 183.561 31.6971 184.125 31.2178H187.737Z" fill="white"/>
<path d="M198.661 32.2837H196.018V33.5263H198.484V34.4139H196.018V35.834L198.578 35.6707L198.826 35.9316L198.838 36.7198H194.962V31.2168C196.049 31.4422 197.33 31.5203 198.405 31.2505L198.643 31.5026L198.664 32.2819L198.661 32.2837Z" fill="white"/>
<path d="M207.979 31.415L209.935 36.721L208.721 36.7033L208.33 35.4997H206.52L206.319 35.6541C206.103 36.6252 205.847 36.8613 204.825 36.7228L206.786 31.4221L207.977 31.4168L207.979 31.415ZM207.997 34.5908L207.294 32.6399L206.763 34.5908H207.995H207.997Z" fill="white"/>
<path d="M170.823 36.7215L169.579 36.6434C169.223 35.1185 168.458 35.4629 167.142 35.4984L166.751 36.7019L165.537 36.7197L167.489 31.4102L168.8 31.5699L170.823 36.7197V36.7215ZM168.707 34.5913C168.821 34.4794 168.358 33.2439 168.265 32.9954C168.199 32.8232 168.243 32.5889 168.004 32.6403L167.475 34.5913H168.707Z" fill="white"/>
<path d="M149.68 31.3953L152.686 31.4734C155.089 33.009 153.102 35.4711 150.737 34.9457L150.912 36.7191H149.679V31.3936L149.68 31.3953ZM152.464 32.4977C152.228 32.203 151.13 32.2953 150.737 32.2847V33.8841L152.334 33.806C152.601 33.6143 152.661 32.7445 152.464 32.4995V32.4977Z" fill="white"/>
<path d="M136.026 31.3961C136.649 31.5292 137.173 32.6085 137.134 33.2121C137.034 34.7476 135.458 35.0565 134.176 34.9447V36.7216H133.119V31.2186C133.256 31.1795 133.332 31.3961 133.383 31.3961C134.089 31.3961 135.435 31.2701 136.026 31.3961ZM135.916 33.6843C136.174 32.2411 135.377 32.1807 134.174 32.2837V33.8831L135.916 33.6843Z" fill="white"/>
<path d="M212.051 32.2835H210.465L210.479 31.4083C211.854 31.0515 213.304 31.2521 214.699 31.2965L214.872 32.2817H213.286V36.7196H212.053V32.2817L212.051 32.2835Z" fill="white"/>
<path d="M172.761 31.3953V35.8332H175.051V36.7208H171.704V31.2178L172.761 31.3953Z" fill="white"/>
<path d="M208.439 31.751C208.554 31.751 208.554 31.9285 208.439 31.9285C208.324 31.9285 208.324 31.751 208.439 31.751Z" fill="white"/>
<path d="M158.842 21.2768C158.019 24.5307 155.161 26.0342 151.921 25.4981C146.696 24.6318 146.01 15.3406 150.554 13.1926C152.372 12.3335 154.654 12.2873 156.363 13.3915C157.27 13.979 158.842 16.0098 158.842 17.1069V19.8584H150.737C150.799 21.8502 151.639 23.265 153.805 23.0377C154.333 22.9827 155.352 22.7928 155.227 22.1697L155.644 22.3312L156.287 21.2785H158.842V21.2768ZM155.847 17.5489C155.491 14.0092 151.093 14.082 150.737 17.5489H155.847Z" fill="white"/>
<path d="M193.111 15.0645C193.225 15.0645 193.225 15.242 193.111 15.242C192.996 15.242 192.996 15.0645 193.111 15.0645Z" fill="white"/>
<path d="M149.24 24.6504C149.354 24.6504 149.354 24.8279 149.24 24.8279C149.125 24.8279 149.125 24.6504 149.24 24.6504Z" fill="white"/>
<path d="M188.882 16.6621C188.997 16.6621 188.997 16.8396 188.882 16.8396C188.768 16.8396 188.768 16.6621 188.882 16.6621Z" fill="white"/>
<path d="M213.548 32.6387C213.663 32.6387 213.663 32.8162 213.548 32.8162C213.434 32.8162 213.434 32.6387 213.548 32.6387Z" fill="white"/>
<path d="M182.187 33.3486C182.301 33.3486 182.301 33.5261 182.187 33.5261C182.072 33.5261 182.072 33.3486 182.187 33.3486Z" fill="white"/>
<path d="M182.539 33.3486C182.654 33.3486 182.654 33.5261 182.539 33.5261C182.425 33.5261 182.425 33.3486 182.539 33.3486Z" fill="white"/>
<path d="M165.097 33.5254C165.211 33.5254 165.211 33.7029 165.097 33.7029C164.982 33.7029 164.982 33.5254 165.097 33.5254Z" fill="white"/>
<path d="M192.054 33.7031C192.168 33.7031 192.168 33.8806 192.054 33.8806C191.939 33.8806 191.939 33.7031 192.054 33.7031Z" fill="white"/>
<path d="M156.992 13.4668C157.107 13.4668 157.107 13.6443 156.992 13.6443C156.878 13.6443 156.878 13.4668 156.992 13.4668Z" fill="white"/>
<path d="M195.93 20.2119C196.044 20.2119 196.044 20.3894 195.93 20.3894C195.815 20.3894 195.815 20.2119 195.93 20.2119Z" fill="white"/>
<path d="M165.273 34.9463C165.387 34.9463 165.387 35.1238 165.273 35.1238C165.158 35.1238 165.158 34.9463 165.273 34.9463Z" fill="white"/>
<path d="M225.705 35.123C225.82 35.123 225.82 35.3006 225.705 35.3006C225.591 35.3006 225.591 35.123 225.705 35.123Z" fill="white"/>
<path d="M183.244 25.3604C183.359 25.3604 183.359 25.5379 183.244 25.5379C183.13 25.5379 183.13 25.3604 183.244 25.3604Z" fill="white"/>
<path d="M198.749 24.6504C198.863 24.6504 198.863 24.8279 198.749 24.8279C198.634 24.8279 198.634 24.6504 198.749 24.6504Z" fill="white"/>
<path d="M168.973 36.0107C169.087 36.0107 169.087 36.1883 168.973 36.1883C168.858 36.1883 168.858 36.0107 168.973 36.0107Z" fill="white"/>
<path d="M182.892 36.1885C183.006 36.1885 183.006 36.366 182.892 36.366C182.777 36.366 182.777 36.1885 182.892 36.1885Z" fill="white"/>
<path d="M143.073 36.3662C143.188 36.3662 143.188 36.5437 143.073 36.5437C142.959 36.5437 142.959 36.3662 143.073 36.3662Z" fill="white"/>
<path d="M161.044 36.3662C161.159 36.3662 161.159 36.5437 161.044 36.5437C160.93 36.5437 160.93 36.3662 161.044 36.3662Z" fill="white"/>
<path d="M191.701 36.3662C191.816 36.3662 191.816 36.5437 191.701 36.5437C191.587 36.5437 191.587 36.3662 191.701 36.3662Z" fill="white"/>
<path d="M140.43 36.5439C140.545 36.5439 140.545 36.7215 140.43 36.7215C140.316 36.7215 140.316 36.5439 140.43 36.5439Z" fill="white"/>
<path d="M165.273 36.5439C165.387 36.5439 165.387 36.7215 165.273 36.7215C165.158 36.7215 165.158 36.5439 165.273 36.5439Z" fill="white"/>
<path d="M182.363 36.5439C182.478 36.5439 182.478 36.7215 182.363 36.7215C182.249 36.7215 182.249 36.5439 182.363 36.5439Z" fill="white"/>
<path d="M111.8 19.6797V26.2478H103.167C102.865 24.1371 103.029 21.9874 102.99 19.8572L111.8 19.6797Z" fill="white"/>
<path d="M111.888 32.1055C112.002 32.1055 112.002 32.283 111.888 32.283C111.773 32.283 111.773 32.1055 111.888 32.1055Z" fill="white"/>
<path d="M115.94 18.2598C116.055 18.2598 116.055 18.4373 115.94 18.4373C115.826 18.4373 115.826 18.2598 115.94 18.2598Z" fill="white"/>
<path d="M116.293 19.502C116.407 19.502 116.407 19.6795 116.293 19.6795C116.178 19.6795 116.178 19.502 116.293 19.502Z" fill="white"/>
<path d="M107.002 0.0141518C107.94 -0.0905833 108.821 0.406464 109.629 0.83073C115.428 3.8787 120.941 7.60478 126.603 10.8888C127.37 11.5332 127.595 12.5824 127.664 13.5481C128.064 19.1736 127.347 25.2784 127.659 30.9554C127.273 32.3755 127.812 33.5241 126.924 34.8306C126.559 35.3667 125.803 35.8087 125.245 36.1566C120.031 39.4087 114.467 42.1514 109.277 45.4532C107.815 46.3816 106.41 45.9982 104.985 45.2757C99.6464 42.5721 94.5458 38.5744 89.1932 35.8016C88.0779 35.0631 87.4137 34.5288 87.3027 33.0909C86.8041 26.5743 87.6974 19.4239 87.3027 12.838C87.426 11.2492 88.3475 10.7202 89.5456 9.94978C94.1494 6.9817 99.8068 3.56272 104.631 1.00825C105.295 0.656764 106.275 0.0940345 107.002 0.0141518ZM107.924 18.4369L108.102 8.22787L107.934 7.86396C107.342 7.67934 106.463 7.65804 106.34 8.40893C106.216 9.15983 106.308 10.7539 106.336 11.606C106.347 11.9451 106.514 12.2717 106.523 12.6605C106.565 14.583 106.475 16.5161 106.514 18.4386H103.871C103.972 17.3398 103.738 16.0368 103.861 14.9664C103.928 14.3806 104.416 14.1694 104.192 13.4096C103.968 12.6498 102.168 12.6534 102.277 14.0859C102.305 14.4569 102.742 14.5563 102.813 14.9753C102.983 15.9712 102.691 17.3824 102.807 18.4315C101.873 18.5345 100.658 18.7742 99.7292 18.6126C99.2324 18.5274 98.4924 17.1996 97.7225 18.1883C96.9525 19.1771 97.9533 20.0505 99.0033 19.8588L99.2218 19.4967L101.579 19.5002V22.163C100.966 22.1363 100.341 22.202 99.7257 22.1665C97.8211 22.0547 95.0867 21.7245 93.2173 21.9943C92.2448 22.1346 92.1443 23.0914 92.68 23.7606H101.577V26.2459C100.883 26.1766 100.052 26.3453 99.3804 26.2405C99.0033 26.1819 98.7443 25.8447 98.355 25.9157C97.5921 26.1642 97.3137 26.7251 97.6115 27.492C97.8194 27.9127 98.5911 27.9394 98.9928 27.8133C99.2518 27.7317 99.3346 27.3802 99.7275 27.311C100.651 27.1476 101.875 27.3926 102.805 27.4938C102.7 28.4968 102.969 29.8139 102.805 30.7708C102.747 31.1187 102.446 31.2909 102.354 31.5625C102.03 32.5104 102.987 33.3767 103.863 32.7199C104.957 31.898 103.868 31.337 103.868 30.9501V27.4885H106.511V37.8732C106.919 38.3916 107.571 38.0774 108.096 37.962V27.4885H110.739C110.313 28.534 110.725 29.8583 110.558 30.9447C110.508 31.2607 110.285 31.4666 110.237 31.6992C109.955 33.0891 112.256 33.6714 112.166 31.8359C112.138 31.2483 111.698 31.2146 111.62 30.7743C111.456 29.8264 111.742 28.4879 111.62 27.4885C112.772 27.5382 114.245 27.0837 115.384 27.3039C115.584 27.3429 115.394 27.9482 116.474 27.8542C117.889 27.7317 117.315 25.5411 115.977 25.9281C115.803 25.9778 115.669 26.1961 115.406 26.2441C114.76 26.3612 113.886 26.166 113.206 26.2476C113.047 25.4044 113.562 24.6233 113.206 23.8529L113.465 23.6008C113.678 23.7482 113.914 23.7677 114.164 23.7713C116.326 23.8068 119.515 23.9985 121.564 23.7482C121.716 23.7304 122.176 23.6275 122.198 23.473L122.167 22.4541L121.927 22.1647H113.206V19.502C113.835 19.5765 114.631 19.3972 115.23 19.5055C115.746 19.5996 115.715 19.9724 116.608 19.8162C117.408 19.6759 117.503 18.4422 116.909 17.9931C115.981 17.528 115.743 18.3499 115.234 18.4386C114.837 18.5079 113.223 18.6037 112.772 18.5824C112.404 18.5647 112.024 18.3552 111.622 18.4386V14.9771C111.622 14.9167 111.985 14.6913 112.062 14.5333C112.247 14.1605 112.239 13.3705 111.9 13.0989C111.226 12.6658 110.412 12.9782 110.239 13.7717C110.103 14.3948 110.648 14.5794 110.736 15.1599C110.884 16.1505 110.641 17.4108 110.743 18.4369H107.924ZM103.165 8.67521C102.98 8.48704 100.556 9.79357 100.184 10.0208C97.5815 11.6078 94.5757 14.9362 93.7758 17.9452C93.7142 18.1777 93.5327 18.3446 93.8269 18.5292C93.9767 18.6233 94.8612 18.4333 95.0673 18.357C95.7403 18.1085 96.1051 16.7221 96.4979 16.0706C97.8493 13.8321 99.8173 12.0534 102.162 10.951C102.478 10.8019 102.818 10.7184 103.146 10.6084L103.163 8.67521H103.165ZM111.448 8.67521C111.506 9.19178 111.284 9.96221 111.61 10.374C111.853 10.6812 114.189 11.7818 114.851 12.2557C116.083 13.138 117.101 14.2723 117.931 15.5433C118.248 16.028 119.237 18.27 119.372 18.3517C119.749 18.5807 121.282 18.8949 121.111 18.0286C121.037 17.6522 120.024 15.751 119.76 15.2984C118.631 13.3599 117.045 11.7321 115.206 10.4788C114.732 10.1557 111.761 8.3468 111.448 8.67521ZM103.144 35.3241C100.496 34.314 98.0484 32.395 96.616 29.9187C95.8883 28.6636 95.6434 26.5689 93.7336 27.4867C93.5186 27.7867 94.6356 29.8796 94.8541 30.2755C96.6777 33.5542 99.4685 35.5708 102.753 37.2342C103.389 37.3371 103.147 35.7554 103.144 35.3258V35.3241ZM111.661 35.1625C111.351 35.4643 111.326 37.2466 111.71 37.2519C113.477 36.3111 115.292 35.3773 116.818 34.0584C117.274 33.6643 118.421 32.7217 118.174 32.1856C118.876 32.1323 119.6 30.7938 119.979 30.1424C120.202 29.7554 121.282 27.8062 121.057 27.4885C120.689 27.2044 119.785 27.2151 119.452 27.4796C118.151 30.3589 116.469 32.7128 113.682 34.2696C113.29 34.488 111.763 35.0649 111.661 35.1625Z" fill="white"/>
<path d="M119.464 27.8457C119.579 27.8457 119.579 28.0232 119.464 28.0232C119.35 28.0232 119.35 27.8457 119.464 27.8457Z" fill="white"/>
<path d="M116.997 33.3486C117.112 33.3486 117.112 33.5261 116.997 33.5261C116.883 33.5261 116.883 33.3486 116.997 33.3486Z" fill="white"/>
<path d="M179.544 16.1289C179.659 16.1289 179.659 16.3064 179.544 16.3064C179.43 16.3064 179.43 16.1289 179.544 16.1289Z" fill="white"/>
<path d="M217.601 34.5908C217.715 34.5908 217.715 34.7683 217.601 34.7683C217.486 34.7683 217.486 34.5908 217.601 34.5908Z" fill="white"/>
<path d="M219.186 34.9463C219.301 34.9463 219.301 35.1238 219.186 35.1238C219.072 35.1238 219.072 34.9463 219.186 34.9463Z" fill="white"/>
<path d="M156.64 34.7686C156.754 34.7686 156.754 34.9461 156.64 34.9461C156.525 34.9461 156.525 34.7686 156.64 34.7686Z" fill="white"/>
<path d="M156.64 35.3008C156.754 35.3008 156.754 35.4783 156.64 35.4783C156.525 35.4783 156.525 35.3008 156.64 35.3008Z" fill="white"/>
<path d="M207.382 33.5254C207.496 33.5254 207.496 33.7029 207.382 33.7029C207.267 33.7029 207.267 33.5254 207.382 33.5254Z" fill="white"/>
<path d="M135.497 32.6387C135.612 32.6387 135.612 32.8162 135.497 32.8162C135.383 32.8162 135.383 32.6387 135.497 32.6387Z" fill="white"/>
</g>
<defs>
<clipPath id="clip0_53_828">
<rect width="139" height="46" fill="white" transform="translate(87.1459)"/>
</clipPath>
</defs>
</svg>
