<svg width="139" height="46" viewBox="0 0 139 46" fill="none" xmlns="http://www.w3.org/2000/svg">
<g clip-path="url(#clip0_3_126)">
<path d="M116.624 25.3599L123.069 8.30762L126.653 8.33247L133.186 25.3599H129.75L128.416 21.822L121.307 21.8007L120.148 25.3617H116.624V25.3599ZM127.195 18.7918L124.817 12.3994L122.438 18.7918H127.195Z" fill="white"/>
<path d="M48.6155 8.31836L53.459 20.9221L57.8654 8.31836H61.3011L55.2261 25.186C55.1433 25.3245 55.0165 25.3422 54.872 25.3618C53.9065 25.502 52.6309 25.2712 51.6284 25.3405L45.09 8.31836H48.6138H48.6155Z" fill="white"/>
<path d="M99.1815 21.2774C98.3957 25.371 93.6421 26.729 90.3175 24.6165C87.6306 22.9088 87.354 18.2099 88.6313 15.5312C90.321 11.9897 95.3247 11.6382 97.8935 14.4093C98.2336 14.7768 99.1815 16.5146 99.1815 16.9283V19.8573H91.0768C91.2054 20.5496 91.2706 21.4461 91.6301 22.0514C92.6291 23.736 96.0541 23.223 96.5387 21.2774H99.1815ZM96.1863 17.5496C95.8727 13.9619 91.4926 14.143 91.0768 17.5496H96.1863Z" fill="white"/>
<path d="M102.793 12.9341L105.438 16.6619C105.789 16.7489 105.665 16.5377 105.745 16.4347C106.574 15.3448 107.217 14.0134 108.081 12.9341H111.516L107.336 19.0584L111.516 25.3603H108.257L105.612 21.6324C105.364 21.5703 105.315 21.7851 105.2 21.9253C104.37 22.9425 103.662 24.3325 102.795 25.3603H99.3595L103.724 19.0584L99.5357 12.9341H102.795H102.793Z" fill="white"/>
<path d="M83.5008 9.73859V12.9339H86.8484L86.496 15.4191H83.5008V21.721C83.5008 21.7636 83.8655 22.447 83.8955 22.4772C84.5632 23.1642 85.8476 22.7169 86.6722 22.6956L87.0245 25.3583C84.9279 25.7595 81.3583 25.7613 80.5866 23.2352C80.5426 23.0914 80.3294 22.1328 80.3294 22.0743V15.4174H78.2151V12.9321H80.3294V9.73682H83.5008V9.73859Z" fill="white"/>
<path d="M138.824 8.31836H135.652V25.36H138.824V8.31836Z" fill="white"/>
<path d="M76.4533 8.31836L76.6295 25.36H73.4581V8.31836H76.4533Z" fill="white"/>
<path d="M101.824 31.4845C101.9 31.2022 102.665 31.2253 102.881 31.2998C103.607 31.5466 104.654 34.0034 105.084 34.7703C105.81 35.2247 105.172 34.5715 105.172 34.504V31.4862L105.456 31.2466L106.405 31.4862V36.723L104.99 36.6395L103.058 33.3502V36.723H101.824V31.4862V31.4845Z" fill="white"/>
<path d="M130.494 31.2608C134.469 30.5685 134.888 36.6023 131.315 36.8899C127.765 37.1757 127.395 31.8005 130.494 31.2608ZM130.485 32.3171C129.533 32.6011 129.415 34.5822 129.93 35.2976C130.545 36.1532 132.093 35.9207 132.402 34.9568C132.855 33.5402 132.208 31.8023 130.485 32.3171Z" fill="white"/>
<path d="M69.5326 31.2608C71.7614 30.8721 73.1286 32.6455 72.6741 34.781C72.0609 37.6674 67.85 37.4881 67.4783 34.6709C67.2721 33.1106 67.8553 31.5537 69.5309 31.2626L69.5326 31.2608ZM69.5291 32.3206C68.5477 32.5443 68.5583 34.007 68.7362 34.8218C69.0164 36.1106 71.0425 36.1994 71.4425 34.955C71.9217 33.4621 71.2734 31.923 69.5309 32.3188L69.5291 32.3206Z" fill="white"/>
<path d="M95.6578 33.1708C95.36 33.1477 94.99 33.2365 94.7117 33.1477C94.2518 32.9986 94.5284 32.1146 93.0925 32.2744C91.9173 32.4057 91.7323 34.0193 92.0336 34.9566C92.3824 36.043 94.4474 36.2809 94.5989 35.0365C94.6641 34.5057 93.6915 34.8679 93.3638 34.7702V33.8809H95.656C96.1018 36.2188 94.435 37.4294 92.3102 36.6306C89.9229 35.7342 90.2241 31.7045 92.7877 31.259C94.0968 31.0317 95.7388 31.6211 95.656 33.1708H95.6578Z" fill="white"/>
<path d="M58.2566 31.2609C58.6565 31.1917 59.0124 31.1917 59.4106 31.2609C61.9495 31.7029 62.1503 35.7645 59.8881 36.6326C55.7917 38.2054 54.7399 31.8733 58.2566 31.2609ZM58.253 32.3207C56.7784 32.6562 56.9123 36.3255 59.2397 35.8C60.7549 35.4574 60.7831 31.7473 58.253 32.3207Z" fill="white"/>
<path d="M134.771 31.4844L135.059 31.243C135.61 31.069 138.061 31.401 138.478 31.8323C139.086 32.459 139.053 34.2643 137.959 34.4312L137.936 34.6779L139.002 36.6324C137.52 37.2111 137.349 35.8495 136.865 34.7933L136.005 34.7702V36.7247H134.771V31.488V31.4844ZM136.003 33.8827C138.424 34.3087 138.431 31.8607 136.003 32.2832V33.8827Z" fill="white"/>
<path d="M112.748 31.4843C113.148 30.934 113.747 31.3618 114.242 31.3991C114.647 31.4293 115.074 31.3459 115.472 31.4027C117.066 31.6281 117.401 33.8879 115.911 34.5128L116.978 36.6323L115.766 36.6998L114.841 34.7915L113.981 34.7684V36.7229H112.748V31.4861V31.4843ZM113.98 33.8826C116.4 34.3086 116.407 31.8607 113.98 32.2832V33.8826Z" fill="white"/>
<path d="M51.0822 31.2183C52.4758 31.591 54.7892 30.8064 55.0993 32.7698C55.3072 34.0905 54.0686 34.3994 54.0686 34.5094L55.3107 36.7195L53.9241 36.6982C53.4889 35.8444 53.355 34.4793 52.1393 34.7668V36.7213L50.906 36.7195C50.8214 36.6503 51.0822 36.4941 51.0822 36.455V31.2183ZM53.8818 32.4822L52.1393 32.2834V33.8828L53.8818 33.684V32.4822Z" fill="white"/>
<path d="M77.6866 32.9932L76.744 33.0003C76.4128 32.2086 75.5389 31.9689 74.8694 32.553C74.6385 33.4228 76.4251 33.4761 76.973 33.8027C78.631 34.7879 77.7588 36.7548 75.9934 36.8897C74.7654 36.982 73.5673 36.2861 73.6343 34.9477H74.8694L74.887 35.6364C75.449 35.8814 76.1326 35.9702 76.64 35.5548C76.7933 34.4506 75.4561 34.5749 74.6844 34.1559C73.7611 33.6536 73.4757 32.9559 73.9461 31.9743C74.5698 30.6713 78.0161 31.0476 77.6884 32.9932H77.6866Z" fill="white"/>
<path d="M100.591 31.2183V32.2834H97.9482V33.526H100.415V34.4136H97.9482V35.8337L100.508 35.6775C100.887 35.9012 100.617 36.3325 100.767 36.7213H96.7149C96.9809 35.6313 96.9492 34.2254 96.8999 33.0733C96.8717 32.4396 96.4153 31.6976 96.9791 31.2183H100.591Z" fill="white"/>
<path d="M111.515 32.2832H108.872V33.5258H111.338V34.4134H108.872V35.8335L111.432 35.6702L111.68 35.9312L111.693 36.7193H107.816V31.2163C108.904 31.4418 110.184 31.5199 111.259 31.25L111.497 31.5021L111.518 32.2814L111.515 32.2832Z" fill="white"/>
<path d="M120.833 31.415L122.789 36.721L121.575 36.7033L121.184 35.4997H119.374L119.174 35.6541C118.957 36.6252 118.701 36.8613 117.679 36.7228L119.64 31.4221L120.831 31.4168L120.833 31.415ZM120.851 34.5908L120.148 32.6399L119.618 34.5908H120.849H120.851Z" fill="white"/>
<path d="M83.677 36.721L82.4331 36.6429C82.0772 35.118 81.3126 35.4624 79.9964 35.4979L79.6053 36.7015L78.3914 36.7192L80.3435 31.4097L81.6544 31.5694L83.677 36.7192V36.721ZM81.561 34.5908C81.6755 34.4789 81.2121 33.2434 81.1187 32.9949C81.0536 32.8227 81.0976 32.5884 80.858 32.6399L80.3294 34.5908H81.561Z" fill="white"/>
<path d="M62.5344 31.3958L65.5402 31.4739C67.9434 33.0094 65.956 35.4716 63.5915 34.9462L63.766 36.7196H62.5327V31.394L62.5344 31.3958ZM65.3182 32.4982C65.0821 32.2035 63.9844 32.2958 63.5915 32.2852V33.8846L65.1878 33.8065C65.4556 33.6148 65.5155 32.7449 65.3182 32.5V32.4982Z" fill="white"/>
<path d="M48.8798 31.3956C49.5035 31.5287 50.0268 32.608 49.988 33.2116C49.8876 34.7471 48.3125 35.056 47.0298 34.9442V36.7211H45.9727V31.2181C46.1101 31.179 46.1859 31.3956 46.237 31.3956C46.9435 31.3956 48.2896 31.2696 48.8798 31.3956ZM48.7706 33.6838C49.0278 32.2406 48.2315 32.1802 47.0281 32.2832V33.8826L48.7706 33.6838Z" fill="white"/>
<path d="M124.905 32.2835H123.319L123.333 31.4083C124.708 31.0515 126.158 31.2521 127.553 31.2965L127.726 32.2817H126.14V36.7196H124.907V32.2817L124.905 32.2835Z" fill="white"/>
<path d="M85.6151 31.3958V35.8337H87.9055V36.7213H84.5579V31.2183L85.6151 31.3958Z" fill="white"/>
<path d="M121.293 31.7505C121.408 31.7505 121.408 31.928 121.293 31.928C121.179 31.928 121.179 31.7505 121.293 31.7505Z" fill="white"/>
<path d="M71.6962 21.2773C70.8734 24.5311 68.0156 26.0347 64.7755 25.4986C59.5498 24.6323 58.8644 15.3411 63.4083 13.1931C65.2266 12.334 67.5082 12.2878 69.2172 13.392C70.1246 13.9795 71.6962 16.0103 71.6962 17.1074V19.8589H63.5916C63.6532 21.8506 64.4936 23.2655 66.659 23.0382C67.1876 22.9832 68.2059 22.7933 68.0808 22.1702L68.4984 22.3317L69.1415 21.279H71.6962V21.2773ZM68.701 17.5494C68.3451 14.0097 63.9475 14.0825 63.5916 17.5494H68.701Z" fill="white"/>
<path d="M105.965 15.064C106.079 15.064 106.079 15.2415 105.965 15.2415C105.85 15.2415 105.85 15.064 105.965 15.064Z" fill="white"/>
<path d="M62.0939 24.6499C62.2085 24.6499 62.2085 24.8274 62.0939 24.8274C61.9794 24.8274 61.9794 24.6499 62.0939 24.6499Z" fill="white"/>
<path d="M101.736 16.6616C101.851 16.6616 101.851 16.8391 101.736 16.8391C101.622 16.8391 101.622 16.6616 101.736 16.6616Z" fill="white"/>
<path d="M126.403 32.6382C126.517 32.6382 126.517 32.8157 126.403 32.8157C126.288 32.8157 126.288 32.6382 126.403 32.6382Z" fill="white"/>
<path d="M95.0411 33.3481C95.1556 33.3481 95.1556 33.5257 95.0411 33.5257C94.9266 33.5257 94.9266 33.3481 95.0411 33.3481Z" fill="white"/>
<path d="M95.3934 33.3481C95.508 33.3481 95.508 33.5257 95.3934 33.5257C95.2789 33.5257 95.2789 33.3481 95.3934 33.3481Z" fill="white"/>
<path d="M77.9509 33.5259C78.0654 33.5259 78.0654 33.7034 77.9509 33.7034C77.8364 33.7034 77.8364 33.5259 77.9509 33.5259Z" fill="white"/>
<path d="M104.908 33.7036C105.022 33.7036 105.022 33.8811 104.908 33.8811C104.793 33.8811 104.793 33.7036 104.908 33.7036Z" fill="white"/>
<path d="M69.8462 13.4663C69.9607 13.4663 69.9607 13.6438 69.8462 13.6438C69.7317 13.6438 69.7317 13.4663 69.8462 13.4663Z" fill="white"/>
<path d="M108.784 20.2119C108.898 20.2119 108.898 20.3894 108.784 20.3894C108.669 20.3894 108.669 20.2119 108.784 20.2119Z" fill="white"/>
<path d="M78.127 34.9458C78.2416 34.9458 78.2416 35.1233 78.127 35.1233C78.0125 35.1233 78.0125 34.9458 78.127 34.9458Z" fill="white"/>
<path d="M138.56 35.1235C138.674 35.1235 138.674 35.3011 138.56 35.3011C138.445 35.3011 138.445 35.1235 138.56 35.1235Z" fill="white"/>
<path d="M96.0982 25.3599C96.2127 25.3599 96.2127 25.5374 96.0982 25.5374C95.9837 25.5374 95.9837 25.3599 96.0982 25.3599Z" fill="white"/>
<path d="M111.603 24.6499C111.717 24.6499 111.717 24.8274 111.603 24.8274C111.488 24.8274 111.488 24.6499 111.603 24.6499Z" fill="white"/>
<path d="M81.827 36.0112C81.9415 36.0112 81.9415 36.1887 81.827 36.1887C81.7125 36.1887 81.7125 36.0112 81.827 36.0112Z" fill="white"/>
<path d="M95.7459 36.1885C95.8604 36.1885 95.8604 36.366 95.7459 36.366C95.6313 36.366 95.6313 36.1885 95.7459 36.1885Z" fill="white"/>
<path d="M55.9274 36.3662C56.0419 36.3662 56.0419 36.5437 55.9274 36.5437C55.8129 36.5437 55.8129 36.3662 55.9274 36.3662Z" fill="white"/>
<path d="M73.8985 36.3662C74.013 36.3662 74.013 36.5437 73.8985 36.5437C73.784 36.5437 73.784 36.3662 73.8985 36.3662Z" fill="white"/>
<path d="M104.555 36.3662C104.67 36.3662 104.67 36.5437 104.555 36.5437C104.441 36.5437 104.441 36.3662 104.555 36.3662Z" fill="white"/>
<path d="M53.2846 36.5435C53.3991 36.5435 53.3991 36.721 53.2846 36.721C53.17 36.721 53.17 36.5435 53.2846 36.5435Z" fill="white"/>
<path d="M78.127 36.5435C78.2416 36.5435 78.2416 36.721 78.127 36.721C78.0125 36.721 78.0125 36.5435 78.127 36.5435Z" fill="white"/>
<path d="M95.2173 36.5435C95.3318 36.5435 95.3318 36.721 95.2173 36.721C95.1028 36.721 95.1028 36.5435 95.2173 36.5435Z" fill="white"/>
<path d="M24.654 19.6797V26.2478H16.0208C15.7195 24.1371 15.8833 21.9874 15.8446 19.8572L24.654 19.6797Z" fill="white"/>
<path d="M24.7421 32.106C24.8566 32.106 24.8566 32.2835 24.7421 32.2835C24.6276 32.2835 24.6276 32.106 24.7421 32.106Z" fill="white"/>
<path d="M28.7944 18.2593C28.9089 18.2593 28.9089 18.4368 28.7944 18.4368C28.6799 18.4368 28.6799 18.2593 28.7944 18.2593Z" fill="white"/>
<path d="M29.1468 19.502C29.2613 19.502 29.2613 19.6795 29.1468 19.6795C29.0323 19.6795 29.0323 19.502 29.1468 19.502Z" fill="white"/>
<path d="M19.8564 0.0141518C20.7937 -0.0905833 21.6746 0.406464 22.4833 0.83073C28.2817 3.8787 33.7946 7.60478 39.4573 10.8888C40.2237 11.5332 40.4492 12.5824 40.5179 13.5481C40.9179 19.1736 40.2008 25.2784 40.5127 30.9554C40.1268 32.3755 40.6659 33.5241 39.778 34.8306C39.4132 35.3667 38.6574 35.8087 38.0989 36.1566C32.8855 39.4087 27.3215 42.1514 22.131 45.4532C20.6686 46.3816 19.2644 45.9982 17.839 45.2757C12.5005 42.5721 7.39988 38.5744 2.04729 35.8016C0.93202 35.0631 0.267792 34.5288 0.156793 33.0909C-0.341819 26.5743 0.551454 19.4239 0.156793 12.838C0.280125 11.2492 1.20159 10.7202 2.39967 9.94978C7.00346 6.9817 12.6609 3.56272 17.4849 1.00825C18.1491 0.656764 19.1287 0.0940345 19.8564 0.0141518ZM20.7778 18.4369L20.9558 8.22787L20.7884 7.86396C20.1964 7.67934 19.3172 7.65804 19.1939 8.40893C19.0706 9.15983 19.1622 10.7539 19.1904 11.606C19.201 11.9451 19.3683 12.2717 19.3771 12.6605C19.4194 14.583 19.3296 16.5161 19.3683 18.4386H16.7255C16.8259 17.3398 16.5916 16.0368 16.7149 14.9664C16.7819 14.3806 17.2699 14.1694 17.0462 13.4096C16.8224 12.6498 15.0218 12.6534 15.131 14.0859C15.1592 14.4569 15.5961 14.5563 15.6666 14.9753C15.8375 15.9712 15.5451 17.3824 15.6613 18.4315C14.7275 18.5345 13.5118 18.7742 12.5833 18.6126C12.0865 18.5274 11.3465 17.1996 10.5766 18.1883C9.80661 19.1771 10.8074 20.0505 11.8574 19.8588L12.0759 19.4967L14.4333 19.5002V22.163C13.8202 22.1363 13.1947 22.202 12.5798 22.1665C10.6752 22.0547 7.94078 21.7245 6.07142 21.9943C5.09887 22.1346 4.99844 23.0914 5.53405 23.7606H14.4315V26.2459C13.7374 26.1766 12.9058 26.3453 12.2345 26.2405C11.8574 26.1819 11.5984 25.8447 11.2091 25.9157C10.4462 26.1642 10.1678 26.7251 10.4656 27.492C10.6735 27.9127 11.4452 27.9394 11.8469 27.8133C12.1059 27.7317 12.1887 27.3802 12.5816 27.311C13.5048 27.1476 14.7293 27.3926 15.6596 27.4938C15.5539 28.4968 15.8234 29.8139 15.6596 30.7708C15.6014 31.1187 15.3002 31.2909 15.2085 31.5625C14.8843 32.5104 15.8411 33.3767 16.7167 32.7199C17.8108 31.898 16.722 31.337 16.722 30.9501V27.4885H19.3648V37.8732C19.7736 38.3916 20.4255 38.0774 20.9505 37.962V27.4885H23.5933C23.1669 28.534 23.5792 29.8583 23.4118 30.9447C23.3625 31.2607 23.1388 31.4666 23.0912 31.6992C22.8093 33.0891 25.1103 33.6714 25.0204 31.8359C24.9923 31.2483 24.5518 31.2146 24.4743 30.7743C24.3104 29.8264 24.5958 28.4879 24.4743 27.4885C25.6265 27.5382 27.0995 27.0837 28.2376 27.3039C28.4385 27.3429 28.2482 27.9482 29.3282 27.8542C30.743 27.7317 30.1687 25.5411 28.8314 25.9281C28.657 25.9778 28.5231 26.1961 28.2605 26.2441C27.6139 26.3612 26.74 26.166 26.06 26.2476C25.9014 25.4044 26.4159 24.6233 26.06 23.8529L26.319 23.6008C26.5321 23.7482 26.7682 23.7677 27.0184 23.7713C29.1802 23.8068 32.3692 23.9985 34.4183 23.7482C34.5698 23.7304 35.0297 23.6275 35.0526 23.473L35.0209 22.4541L34.7813 22.1647H26.06V19.502C26.6889 19.5765 27.4853 19.3972 28.0844 19.5055C28.6006 19.5996 28.5689 19.9724 29.4621 19.8162C30.262 19.6759 30.3572 18.4422 29.7634 17.9931C28.8349 17.528 28.5971 18.3499 28.0879 18.4386C27.6915 18.5079 26.0776 18.6037 25.6265 18.5824C25.2583 18.5647 24.8777 18.3552 24.476 18.4386V14.9771C24.476 14.9167 24.839 14.6913 24.9165 14.5333C25.1015 14.1605 25.0927 13.3705 24.7544 13.0989C24.0796 12.6658 23.2656 12.9782 23.0929 13.7717C22.9573 14.3948 23.5017 14.5794 23.5898 15.1599C23.7378 16.1505 23.4947 17.4108 23.5968 18.4369H20.7778ZM16.019 8.67521C15.834 8.48704 13.4097 9.79357 13.0379 10.0208C10.4356 11.6078 7.42983 14.9362 6.62994 17.9452C6.56827 18.1777 6.3868 18.3446 6.68103 18.5292C6.83079 18.6233 7.71526 18.4333 7.9214 18.357C8.59444 18.1085 8.95915 16.7221 9.35205 16.0706C10.7034 13.8321 12.6714 12.0534 15.0165 10.951C15.3319 10.8019 15.6719 10.7184 15.9996 10.6084L16.0172 8.67521H16.019ZM24.3016 8.67521C24.3597 9.19178 24.1377 9.96221 24.4637 10.374C24.7068 10.6812 27.0431 11.7818 27.7056 12.2557C28.9371 13.138 29.9555 14.2723 30.7853 15.5433C31.1025 16.028 32.0909 18.27 32.2265 18.3517C32.6036 18.5807 34.1364 18.8949 33.9655 18.0286C33.8915 17.6522 32.8784 15.751 32.6141 15.2984C31.4848 13.3599 29.8991 11.7321 28.0597 10.4788C27.5857 10.1557 24.6152 8.3468 24.3016 8.67521ZM15.9979 35.3241C13.3498 34.314 10.9025 32.395 9.47009 29.9187C8.74243 28.6636 8.49753 26.5689 6.58766 27.4867C6.37271 27.7867 7.48974 29.8796 7.70821 30.2755C9.53176 33.5542 12.3226 35.5708 15.6067 37.2342C16.2428 37.3371 16.0014 35.7554 15.9979 35.3258V35.3241ZM24.5148 35.1625C24.2047 35.4643 24.18 37.2466 24.5641 37.2519C26.3313 36.3111 28.146 35.3773 29.6718 34.0584C30.1281 33.6643 31.2751 32.7217 31.0285 32.1856C31.7297 32.1323 32.4538 30.7938 32.8326 30.1424C33.0564 29.7554 34.1364 27.8062 33.9109 27.4885C33.5427 27.2044 32.6388 27.2151 32.3058 27.4796C31.0056 30.3589 29.323 32.7128 26.5357 34.2696C26.1445 34.488 24.617 35.0649 24.5148 35.1625Z" fill="white"/>
<path d="M32.3182 27.8452C32.4327 27.8452 32.4327 28.0227 32.3182 28.0227C32.2037 28.0227 32.2037 27.8452 32.3182 27.8452Z" fill="white"/>
<path d="M29.8515 33.3481C29.966 33.3481 29.966 33.5257 29.8515 33.5257C29.737 33.5257 29.737 33.3481 29.8515 33.3481Z" fill="white"/>
<path d="M92.3983 16.1294C92.5128 16.1294 92.5128 16.3069 92.3983 16.3069C92.2837 16.3069 92.2837 16.1294 92.3983 16.1294Z" fill="white"/>
<path d="M130.455 34.5908C130.569 34.5908 130.569 34.7683 130.455 34.7683C130.34 34.7683 130.34 34.5908 130.455 34.5908Z" fill="white"/>
<path d="M132.041 34.9458C132.155 34.9458 132.155 35.1233 132.041 35.1233C131.926 35.1233 131.926 34.9458 132.041 34.9458Z" fill="white"/>
<path d="M69.4939 34.7686C69.6084 34.7686 69.6084 34.9461 69.4939 34.9461C69.3793 34.9461 69.3793 34.7686 69.4939 34.7686Z" fill="white"/>
<path d="M69.4939 35.3013C69.6084 35.3013 69.6084 35.4788 69.4939 35.4788C69.3793 35.4788 69.3793 35.3013 69.4939 35.3013Z" fill="white"/>
<path d="M120.236 33.5259C120.351 33.5259 120.351 33.7034 120.236 33.7034C120.122 33.7034 120.122 33.5259 120.236 33.5259Z" fill="white"/>
<path d="M48.3513 32.6382C48.4658 32.6382 48.4658 32.8157 48.3513 32.8157C48.2368 32.8157 48.2368 32.6382 48.3513 32.6382Z" fill="white"/>
</g>
<defs>
<clipPath id="clip0_3_126">
<rect width="139" height="46" fill="white"/>
</clipPath>
</defs>
</svg>
